<svg width="503" height="396" viewBox="0 0 503 396" fill="none" xmlns="http://www.w3.org/2000/svg">
<g clip-path="url(#clip0_1228_38)">
<path d="M315.438 5.70123L28.9438 62.1382C12.9586 65.2871 2.55273 80.7984 5.70168 96.7836C8.85063 112.769 24.3619 123.175 40.3471 120.026L326.841 63.5887C342.826 60.4398 353.232 44.9285 350.083 28.9433C346.934 12.9581 331.423 2.55228 315.438 5.70123Z" fill="#FE4372"/>
<path d="M57.5232 94.2201L55.575 84.3301L57.6549 83.9204L58.1179 85.2357C58.334 84.6768 58.6699 84.2097 59.126 83.8344C59.5926 83.4436 60.1595 83.1824 60.8266 83.051C61.3238 82.953 61.7814 82.9308 62.1997 82.9843C62.631 83.0353 63.0229 83.1619 63.3754 83.3643C63.7409 83.5641 64.0604 83.8409 64.3339 84.1947C64.592 83.5731 64.9843 83.0473 65.5112 82.6174C66.038 82.1875 66.6481 81.9042 67.3414 81.7676C68.1656 81.6053 68.8991 81.6375 69.5417 81.8642C70.1817 82.0779 70.7166 82.4821 71.1463 83.0769C71.5735 83.6587 71.8798 84.4205 72.0653 85.3624L73.2018 91.1315L70.8666 91.5915L69.7767 86.0579C69.6117 85.2206 69.3154 84.6131 68.8876 84.2353C68.4599 83.8575 67.9124 83.7344 67.2453 83.8658C66.7874 83.956 66.4037 84.1471 66.0943 84.439C65.7979 84.7284 65.5943 85.1083 65.4831 85.5787C65.3693 86.036 65.373 86.572 65.4941 87.1869L66.53 92.4458L64.195 92.9058L63.1049 87.3721C62.94 86.5349 62.6436 85.9274 62.2159 85.5496C61.7881 85.1718 61.2341 85.0499 60.5539 85.1839C60.1221 85.269 59.7516 85.4575 59.4422 85.7495C59.1459 86.0389 58.942 86.4187 58.8308 86.8891C58.7171 87.3464 58.7207 87.8824 58.8419 88.4973L59.8778 93.7562L57.5232 94.2201ZM80.1511 90.0072C79.2092 90.1927 78.3165 90.1444 77.4727 89.8621C76.6394 89.5642 75.9308 89.0719 75.347 88.3851C74.7738 87.6827 74.3879 86.8278 74.1895 85.8205C73.9859 84.787 74.0241 83.8418 74.3037 82.9849C74.5808 82.115 75.0496 81.3907 75.7102 80.8121C76.3813 80.2179 77.1878 79.828 78.1297 79.6424C79.0716 79.4569 79.9593 79.5131 80.7926 79.8109C81.6364 80.0932 82.3435 80.579 82.9142 81.2684C83.498 81.9551 83.8916 82.8153 84.0952 83.8487C84.2988 84.8822 84.2609 85.8274 83.9812 86.6843C83.7015 87.5411 83.2261 88.2667 82.555 88.861C81.8944 89.4396 81.093 89.8216 80.1511 90.0072ZM79.753 87.986C80.2239 87.8932 80.626 87.6918 80.959 87.3815C81.305 87.0688 81.5494 86.6537 81.6921 86.1364C81.8348 85.619 81.8379 85.0137 81.7013 84.3203C81.5647 83.627 81.3335 83.0746 81.0078 82.6631C80.6927 82.236 80.3158 81.9433 79.8769 81.7852C79.4512 81.6244 79.0027 81.5904 78.5318 81.6832C78.0739 81.7734 77.6719 81.9749 77.3258 82.2877C76.9798 82.6005 76.7354 83.0155 76.5927 83.5329C76.4474 84.0371 76.4431 84.6359 76.5796 85.3292C76.7162 86.0226 76.9487 86.5815 77.277 87.0061C77.6052 87.4307 77.9821 87.7233 78.4079 87.8841C78.8467 88.0422 79.2951 88.0762 79.753 87.986ZM91.1688 87.8368C90.2923 88.0095 89.5 88.0229 88.7918 87.877C88.0941 87.7155 87.5065 87.4235 87.0292 87.0011C86.5624 86.5631 86.2319 86.0235 86.0376 85.3822L88.3924 84.9184C88.512 85.1802 88.68 85.4121 88.8964 85.6141C89.1103 85.803 89.3739 85.9345 89.6875 86.0086C90.0141 86.0802 90.3802 86.076 90.7858 85.9961C91.1782 85.9188 91.4884 85.8033 91.7164 85.6497C91.9417 85.483 92.0953 85.2965 92.177 85.0902C92.2587 84.8838 92.2789 84.676 92.2376 84.4667C92.1758 84.1527 92.0431 83.9274 91.8395 83.7909C91.636 83.6543 91.3616 83.5725 91.0165 83.5453C90.682 83.5025 90.2832 83.4791 89.8203 83.4752C89.3313 83.4764 88.8517 83.4554 88.3811 83.4122C87.9211 83.3533 87.4938 83.254 87.0994 83.1143C86.718 82.972 86.3904 82.7579 86.1166 82.4721C85.856 82.1837 85.6794 81.804 85.5866 81.3331C85.4732 80.7575 85.5217 80.2111 85.7324 79.694C85.9562 79.1743 86.3302 78.7269 86.8543 78.3519C87.3889 77.9612 88.0617 77.6859 88.8728 77.5262C90.024 77.2994 90.9924 77.3872 91.7783 77.7895C92.5748 78.1762 93.126 78.8355 93.4319 79.7673L91.1949 80.2079C91.0573 79.8545 90.8187 79.6093 90.4792 79.4724C90.1371 79.3223 89.7174 79.2963 89.2203 79.3942C88.7101 79.4947 88.3369 79.6701 88.1009 79.9205C87.8753 80.1552 87.7936 80.4295 87.8554 80.7435C87.8941 80.9397 88.0085 81.1074 88.199 81.2465C88.4 81.37 88.6692 81.4597 89.0063 81.5156C89.3409 81.5584 89.7473 81.587 90.2258 81.6015C90.9868 81.6011 91.6678 81.6436 92.269 81.729C92.8702 81.8144 93.3717 82.0146 93.7734 82.3295C94.1752 82.6445 94.4445 83.1486 94.5811 83.842C94.7179 84.4673 94.6638 85.0555 94.419 85.6065C94.1873 86.155 93.7976 86.6259 93.25 87.0191C92.6997 87.3993 92.006 87.6719 91.1688 87.8368ZM101.206 85.615C100.539 85.7464 99.9358 85.7564 99.3975 85.645C98.8722 85.5311 98.4247 85.2591 98.0546 84.8292C97.6845 84.3993 97.4182 83.7723 97.2559 82.9481L96.3514 78.3564L94.6638 78.6888L94.2733 76.7069L95.9609 76.3745L95.7216 73.7105L97.8015 73.3007L98.3156 75.9106L101.004 75.381L101.394 77.3629L98.7062 77.8925L99.6107 82.4843C99.7086 82.9814 99.8815 83.3074 100.13 83.4624C100.388 83.6018 100.772 83.6212 101.283 83.5207L102.499 83.281L102.893 85.2825L101.206 85.615ZM104.971 84.8732L102.188 70.7447L104.543 70.2808L107.326 84.4093L104.971 84.8732ZM111.805 88.0116L113.152 82.1202L112.563 82.2362L106.887 74.2221L109.458 73.7157L113.723 79.8469L115.188 72.587L117.68 72.0961L114.297 87.5207L111.805 88.0116ZM125.73 80.7839L122.947 66.6554L125.302 66.1915L128.085 80.32L125.73 80.7839ZM130.615 79.8217L128.666 69.9318L131.021 69.4679L132.969 79.3579L130.615 79.8217ZM129.535 68.13C129.103 68.2151 128.717 68.1551 128.378 67.9502C128.049 67.7296 127.846 67.423 127.769 67.0306C127.689 66.625 127.762 66.2709 127.988 65.9683C128.224 65.6499 128.558 65.4482 128.989 65.3632C129.421 65.2782 129.8 65.3394 130.126 65.5469C130.463 65.7388 130.672 66.0375 130.751 66.443C130.829 66.8355 130.751 67.1974 130.517 67.5288C130.294 67.8446 129.966 68.045 129.535 68.13ZM141.872 77.6042L136.429 73.0503L139.472 67.8032L142.278 67.2504L138.463 73.6484L138.103 71.8235L144.815 77.0243L141.872 77.6042ZM135.494 78.8605L132.711 64.732L135.066 64.2681L137.849 78.3966L135.494 78.8605ZM150.093 76.2292C149.112 76.4225 148.208 76.3832 147.38 76.1115C146.549 75.8267 145.848 75.3396 145.277 74.6502C144.707 73.9609 144.322 73.1125 144.124 72.1052C143.918 71.0587 143.94 70.103 144.191 69.2382C144.455 68.3708 144.916 67.6413 145.574 67.0496C146.245 66.4553 147.078 66.0603 148.072 65.8644C149.04 65.6737 149.926 65.7234 150.731 66.0133C151.536 66.3033 152.206 66.7759 152.743 67.4312C153.277 68.0734 153.633 68.8458 153.811 69.7485C153.837 69.8793 153.865 70.0232 153.896 70.1802C153.927 70.3372 153.946 70.5033 153.953 70.6785L145.908 72.2633L145.61 70.7524L151.321 69.6275C151.153 68.9132 150.8 68.3983 150.262 68.083C149.722 67.7545 149.112 67.6573 148.431 67.7913C147.947 67.8867 147.524 68.0855 147.163 68.3878C146.801 68.6901 146.546 69.0868 146.398 69.578C146.248 70.056 146.238 70.6287 146.37 71.2959L146.482 71.8649C146.603 72.4798 146.819 72.9877 147.129 73.3887C147.452 73.7871 147.833 74.0653 148.271 74.2235C148.721 74.366 149.194 74.3883 149.691 74.2904C150.241 74.1821 150.669 73.9755 150.976 73.6704C151.295 73.3628 151.502 72.996 151.595 72.5701L153.989 72.0985C153.927 72.7494 153.735 73.3646 153.414 73.9442C153.091 74.5107 152.65 74.9984 152.092 75.4073C151.532 75.8032 150.865 76.0771 150.093 76.2292ZM156.833 74.657L154.049 60.5285L156.404 60.0647L159.187 74.1931L156.833 74.657ZM163.666 77.7954L165.013 71.904L164.424 72.02L158.748 64.0059L161.319 63.4995L165.584 69.6307L167.049 62.3708L169.541 61.8799L166.158 77.3045L163.666 77.7954ZM181.889 69.7212C181.222 69.8526 180.619 69.8626 180.081 69.7512C179.555 69.6373 179.108 69.3653 178.738 68.9354C178.368 68.5055 178.101 67.8785 177.939 67.0543L177.034 62.4625L175.347 62.795L174.956 60.8131L176.644 60.4806L176.405 57.8167L178.485 57.4069L178.999 60.0168L181.687 59.4872L182.078 61.4691L179.389 61.9987L180.294 66.5904C180.392 67.0875 180.565 67.4136 180.813 67.5686C181.071 67.7079 181.455 67.7273 181.966 67.6268L183.182 67.3872L183.576 69.3887L181.889 69.7212ZM190.063 68.3555C189.121 68.5411 188.228 68.4927 187.385 68.2105C186.551 67.9126 185.843 67.4202 185.259 66.7334C184.686 66.031 184.3 65.1761 184.102 64.1688C183.898 63.1353 183.936 62.1902 184.216 61.3333C184.493 60.4633 184.962 59.7391 185.622 59.1605C186.293 58.5662 187.1 58.1763 188.042 57.9908C188.984 57.8052 189.871 57.8614 190.705 58.1593C191.548 58.4415 192.256 58.9273 192.826 59.6167C193.41 60.3035 193.804 61.1636 194.007 62.1971C194.211 63.2306 194.173 64.1757 193.893 65.0326C193.613 65.8895 193.138 66.615 192.467 67.2093C191.806 67.7879 191.005 68.17 190.063 68.3555ZM189.665 66.3344C190.136 66.2416 190.538 66.0401 190.871 65.7299C191.217 65.4171 191.461 65.002 191.604 64.4847C191.747 63.9674 191.75 63.362 191.613 62.6687C191.477 61.9753 191.246 61.4229 190.92 61.0114C190.605 60.5843 190.228 60.2917 189.789 60.1335C189.363 59.9728 188.915 59.9388 188.444 60.0315C187.986 60.1217 187.584 60.3232 187.238 60.636C186.892 60.9488 186.647 61.3639 186.505 61.8812C186.359 62.3854 186.355 62.9842 186.492 63.6776C186.628 64.3709 186.861 64.9299 187.189 65.3544C187.517 65.779 187.894 66.0717 188.32 66.2324C188.759 66.3906 189.207 66.4245 189.665 66.3344ZM207.382 64.9438C206.859 65.0468 206.374 65.0677 205.927 65.0062C205.483 64.9579 205.08 64.8469 204.72 64.6732C204.357 64.4865 204.04 64.2568 203.769 63.9841L203.784 65.4079L201.685 65.8216L198.902 51.6931L201.256 51.2292L202.377 56.9198C202.596 56.374 202.942 55.8912 203.417 55.4716C203.889 55.0389 204.524 54.7439 205.322 54.5867C206.251 54.4038 207.113 54.4716 207.91 54.7903C208.717 55.0934 209.401 55.5974 209.961 56.3025C210.532 56.9918 210.916 57.8402 211.115 58.8475C211.308 59.8286 211.279 60.7516 211.028 61.6164C210.777 62.4812 210.336 63.2069 209.704 63.7934C209.085 64.3773 208.311 64.7608 207.382 64.9438ZM206.49 62.9996C207.039 62.8914 207.504 62.6639 207.884 62.3172C208.262 61.9575 208.523 61.5255 208.669 61.0212C208.824 60.5013 208.84 59.9274 208.717 59.2994C208.596 58.6846 208.364 58.1662 208.023 57.7442C207.695 57.3196 207.289 57.019 206.806 56.8425C206.323 56.6659 205.806 56.6317 205.257 56.7399C204.694 56.8507 204.223 57.0795 203.843 57.4261C203.476 57.7703 203.214 58.2023 203.058 58.7222C202.916 59.2395 202.905 59.8056 203.026 60.4205C203.15 61.0484 203.376 61.5746 203.704 61.9992C204.043 62.4081 204.449 62.7087 204.921 62.9009C205.404 63.0775 205.927 63.1104 206.49 62.9996ZM217.89 62.8738C217.092 63.031 216.375 63.0093 215.737 62.8088C215.11 62.5925 214.583 62.1935 214.156 61.6118C213.726 61.017 213.417 60.2421 213.229 59.2871L212.089 53.4983L214.444 53.0345L215.537 58.5877C215.705 59.4381 216.009 60.0508 216.45 60.426C216.901 60.7856 217.493 60.8932 218.226 60.7489C218.697 60.6561 219.094 60.4625 219.416 60.1679C219.752 59.8708 219.983 59.4923 220.11 59.0324C220.247 58.5569 220.255 58.0117 220.134 57.3969L219.094 52.1183L221.449 51.6545L223.397 61.5444L221.317 61.9541L220.816 60.3406C220.628 60.9755 220.28 61.5197 219.772 61.9732C219.276 62.4242 218.649 62.7244 217.89 62.8738ZM227.868 65.1482L229.215 59.2568L228.626 59.3728L222.95 51.3587L225.521 50.8523L229.786 56.9835L231.251 49.7236L233.743 49.2327L230.36 64.6573L227.868 65.1482ZM247.903 56.9615C246.608 57.2166 245.412 57.1465 244.315 56.7511C243.231 56.3531 242.318 55.6836 241.575 54.7427C240.83 53.7888 240.318 52.6053 240.04 51.1925C239.764 49.7927 239.796 48.5024 240.134 47.3214C240.469 46.1274 241.088 45.129 241.99 44.3262C242.902 43.5078 244.065 42.9594 245.478 42.6811C247.074 42.3667 248.471 42.4923 249.67 43.058C250.879 43.608 251.774 44.5323 252.356 45.831L249.707 46.3529C249.377 45.7113 248.887 45.2575 248.236 44.9915C247.586 44.7255 246.803 44.6827 245.887 44.8631C244.958 45.046 244.2 45.406 243.613 45.943C243.036 46.4643 242.646 47.1391 242.442 47.9674C242.249 48.7801 242.254 49.7032 242.458 50.7367C242.661 51.7701 243.007 52.6262 243.494 53.3049C243.994 53.981 244.603 54.4521 245.321 54.7183C246.037 54.9714 246.827 55.0129 247.69 54.8428C248.972 54.5903 249.869 54.0398 250.382 53.1915C250.894 52.3431 251.096 51.3317 250.986 50.1573L247.435 50.857L247.083 49.0713L253.009 47.9039L254.49 55.4195L252.331 55.8447L251.764 53.9995C251.55 54.5036 251.28 54.9578 250.952 55.3622C250.621 55.7534 250.204 56.0869 249.702 56.3627C249.209 56.6227 248.61 56.8223 247.903 56.9615ZM260.032 54.3276L257.701 42.495L253.659 43.2913L253.284 41.3879L263.704 39.3353L264.079 41.2387L260.036 42.035L262.367 53.8676L260.032 54.3276ZM265.776 53.1961L268.094 38.4705L270.723 37.9525L278.453 50.699L275.961 51.1899L269.93 40.9626L268.229 52.7129L265.776 53.1961ZM267.375 49.5176L267.636 47.5298L274.406 46.1962L275.401 47.9366L267.375 49.5176ZM288.724 48.6756L280.975 35.933L283.506 35.4344L289.681 45.9798L291.454 33.8688L293.946 33.3779L291.589 48.1113L288.724 48.6756ZM298.188 46.8112L295.482 33.0752L297.837 32.6113L300.543 46.3474L298.188 46.8112Z" fill="#FFE9EE"/>
<path d="M388.575 187.231L97.1542 168.856C80.8941 167.831 66.8815 180.181 65.8563 196.442C64.831 212.702 77.1813 226.714 93.4415 227.739L384.863 246.114C401.123 247.14 415.135 234.789 416.161 218.529C417.186 202.269 404.836 188.256 388.575 187.231Z" fill="#61EB76"/>
<path d="M116.622 207.158L117.257 197.098L119.373 197.231L119.485 198.621C119.837 198.135 120.281 197.769 120.817 197.523C121.368 197.263 121.983 197.155 122.661 197.198C123.167 197.23 123.615 197.325 124.006 197.483C124.41 197.642 124.757 197.865 125.046 198.15C125.349 198.436 125.587 198.785 125.762 199.197C126.169 198.662 126.683 198.253 127.302 197.972C127.921 197.69 128.583 197.571 129.288 197.616C130.126 197.669 130.827 197.887 131.391 198.269C131.956 198.639 132.37 199.166 132.634 199.851C132.899 200.522 133.001 201.337 132.941 202.295L132.571 208.163L130.196 208.014L130.55 202.385C130.604 201.533 130.472 200.87 130.155 200.396C129.837 199.922 129.339 199.663 128.661 199.62C128.195 199.591 127.775 199.678 127.402 199.882C127.041 200.086 126.748 200.402 126.52 200.828C126.294 201.241 126.161 201.761 126.122 202.386L125.784 207.735L123.409 207.586L123.764 201.957C123.818 201.105 123.686 200.442 123.368 199.968C123.051 199.494 122.546 199.235 121.854 199.191C121.415 199.163 121.009 199.251 120.635 199.455C120.275 199.659 119.981 199.975 119.754 200.401C119.527 200.815 119.394 201.334 119.355 201.959L119.018 207.309L116.622 207.158ZM139.577 208.846C138.619 208.785 137.768 208.511 137.024 208.023C136.294 207.523 135.734 206.867 135.345 206.054C134.969 205.228 134.814 204.303 134.878 203.279C134.945 202.228 135.222 201.323 135.711 200.566C136.2 199.795 136.838 199.214 137.624 198.823C138.425 198.419 139.304 198.247 140.262 198.308C141.22 198.368 142.064 198.649 142.794 199.149C143.538 199.637 144.098 200.286 144.475 201.098C144.864 201.911 145.026 202.843 144.96 203.894C144.893 204.946 144.616 205.85 144.127 206.607C143.639 207.365 142.994 207.945 142.194 208.349C141.408 208.741 140.535 208.906 139.577 208.846ZM139.707 206.79C140.186 206.82 140.626 206.727 141.027 206.512C141.441 206.298 141.783 205.959 142.053 205.495C142.323 205.031 142.48 204.446 142.524 203.741C142.569 203.036 142.486 202.443 142.276 201.962C142.08 201.468 141.79 201.089 141.406 200.825C141.035 200.561 140.61 200.414 140.131 200.384C139.665 200.354 139.225 200.447 138.811 200.661C138.397 200.875 138.055 201.215 137.785 201.679C137.516 202.129 137.359 202.707 137.315 203.412C137.27 204.118 137.353 204.717 137.562 205.212C137.771 205.706 138.061 206.085 138.432 206.349C138.816 206.613 139.241 206.76 139.707 206.79ZM150.785 209.552C149.893 209.496 149.123 209.307 148.476 208.986C147.842 208.652 147.348 208.22 146.994 207.69C146.654 207.148 146.472 206.542 146.448 205.872L148.843 206.023C148.892 206.307 148.995 206.574 149.153 206.824C149.312 207.061 149.533 207.256 149.818 207.407C150.115 207.56 150.47 207.649 150.883 207.675C151.282 207.7 151.611 207.667 151.871 207.577C152.131 207.473 152.327 207.332 152.459 207.153C152.59 206.974 152.663 206.778 152.676 206.565C152.696 206.246 152.625 205.994 152.463 205.81C152.301 205.627 152.057 205.478 151.73 205.363C151.417 205.237 151.038 205.113 150.591 204.991C150.118 204.868 149.659 204.725 149.215 204.564C148.785 204.39 148.398 204.185 148.052 203.949C147.719 203.714 147.457 203.424 147.265 203.078C147.086 202.733 147.012 202.321 147.042 201.841C147.079 201.256 147.265 200.74 147.601 200.294C147.95 199.848 148.425 199.511 149.027 199.281C149.644 199.04 150.365 198.945 151.19 198.997C152.361 199.071 153.275 199.402 153.932 199.991C154.604 200.568 154.969 201.346 155.028 202.325L152.752 202.181C152.709 201.805 152.541 201.507 152.247 201.288C151.955 201.056 151.556 200.924 151.05 200.892C150.531 200.859 150.126 200.934 149.834 201.116C149.556 201.285 149.407 201.53 149.386 201.849C149.374 202.049 149.442 202.24 149.591 202.423C149.754 202.594 149.991 202.749 150.303 202.889C150.616 203.015 151.001 203.147 151.46 203.282C152.196 203.476 152.844 203.69 153.404 203.926C153.963 204.162 154.397 204.483 154.706 204.89C155.014 205.297 155.146 205.853 155.101 206.558C155.075 207.198 154.873 207.753 154.496 208.223C154.132 208.695 153.635 209.051 153.005 209.291C152.376 209.519 151.636 209.606 150.785 209.552ZM161.056 209.959C160.378 209.917 159.792 209.773 159.3 209.528C158.821 209.284 158.458 208.907 158.209 208.397C157.961 207.887 157.863 207.213 157.916 206.375L158.21 201.704L156.494 201.596L156.621 199.58L158.337 199.688L158.784 197.051L160.9 197.184L160.733 199.839L163.467 200.011L163.34 202.027L160.606 201.855L160.311 206.526C160.279 207.031 160.363 207.391 160.564 207.604C160.778 207.804 161.145 207.921 161.664 207.954L162.901 208.032L162.773 210.068L161.056 209.959ZM164.887 210.201L165.793 195.829L168.188 195.981L167.282 210.352L164.887 210.201ZM170.696 214.976L173.498 209.622L172.9 209.584L169.451 200.389L172.066 200.554L174.63 207.569L177.895 200.921L180.43 201.081L173.231 215.136L170.696 214.976ZM186.003 211.532L186.909 197.161L189.304 197.312L188.398 211.683L186.003 211.532ZM190.971 211.846L191.605 201.786L194 201.937L193.366 211.997L190.971 211.846ZM192.904 200.264C192.464 200.237 192.107 200.08 191.831 199.796C191.569 199.499 191.451 199.151 191.476 198.751C191.502 198.339 191.663 198.015 191.958 197.78C192.268 197.532 192.642 197.422 193.081 197.45C193.52 197.478 193.871 197.633 194.134 197.917C194.411 198.188 194.536 198.53 194.51 198.943C194.485 199.342 194.317 199.672 194.007 199.933C193.71 200.182 193.343 200.292 192.904 200.264ZM202.422 212.568L198.318 206.778L202.597 202.479L205.451 202.659L200.132 207.874L200.249 206.018L205.416 212.756L202.422 212.568ZM195.935 212.159L196.841 197.787L199.236 197.938L198.33 212.31L195.935 212.159ZM210.723 213.331C209.724 213.269 208.86 213 208.128 212.527C207.397 212.04 206.844 211.39 206.467 210.578C206.091 209.766 205.935 208.848 206 207.823C206.067 206.759 206.332 205.84 206.795 205.068C207.271 204.296 207.902 203.708 208.69 203.304C209.49 202.9 210.396 202.73 211.407 202.794C212.392 202.856 213.236 203.129 213.94 203.615C214.645 204.1 215.173 204.728 215.525 205.498C215.878 206.255 216.026 207.093 215.968 208.011C215.959 208.144 215.95 208.29 215.94 208.45C215.93 208.61 215.906 208.775 215.869 208.947L207.685 208.431L207.782 206.894L213.59 207.26C213.61 206.526 213.4 205.939 212.96 205.497C212.521 205.042 211.956 204.792 211.264 204.749C210.771 204.717 210.312 204.802 209.885 205.002C209.458 205.202 209.111 205.521 208.843 205.959C208.576 206.383 208.421 206.934 208.378 207.613L208.341 208.191C208.302 208.817 208.381 209.363 208.579 209.83C208.79 210.297 209.087 210.663 209.471 210.928C209.87 211.18 210.321 211.322 210.827 211.354C211.386 211.389 211.853 211.299 212.227 211.082C212.615 210.866 212.908 210.564 213.106 210.175L215.541 210.329C215.315 210.942 214.974 211.489 214.516 211.967C214.059 212.433 213.509 212.792 212.865 213.046C212.222 213.286 211.508 213.381 210.723 213.331ZM217.64 213.527L218.546 199.156L220.941 199.307L220.035 213.678L217.64 213.527ZM223.449 218.302L226.251 212.948L225.653 212.91L222.204 203.715L224.819 203.88L227.383 210.895L230.648 204.247L233.183 204.407L225.984 218.462L223.449 218.302ZM243.127 215.134C242.448 215.091 241.863 214.948 241.371 214.703C240.892 214.459 240.528 214.082 240.28 213.572C240.031 213.062 239.934 212.388 239.986 211.549L240.281 206.879L238.564 206.77L238.691 204.754L240.408 204.863L240.855 202.226L242.971 202.359L242.803 205.014L245.538 205.186L245.411 207.202L242.676 207.03L242.382 211.7C242.35 212.206 242.434 212.565 242.634 212.779C242.849 212.979 243.215 213.096 243.734 213.128L244.972 213.206L244.844 215.242L243.127 215.134ZM251.38 215.895C250.421 215.835 249.57 215.561 248.826 215.073C248.096 214.572 247.537 213.916 247.147 213.103C246.771 212.278 246.616 211.353 246.681 210.328C246.747 209.277 247.024 208.373 247.513 207.615C248.002 206.845 248.64 206.264 249.426 205.872C250.227 205.468 251.106 205.297 252.064 205.357C253.022 205.418 253.866 205.698 254.596 206.198C255.34 206.686 255.9 207.336 256.277 208.148C256.666 208.961 256.828 209.893 256.762 210.944C256.696 211.995 256.418 212.899 255.929 213.657C255.441 214.414 254.796 214.995 253.996 215.399C253.21 215.79 252.338 215.955 251.38 215.895ZM251.509 213.839C251.988 213.869 252.428 213.777 252.829 213.562C253.244 213.347 253.586 213.008 253.855 212.544C254.125 212.08 254.282 211.496 254.327 210.79C254.371 210.085 254.288 209.492 254.078 209.011C253.882 208.518 253.592 208.139 253.208 207.874C252.837 207.61 252.412 207.463 251.933 207.433C251.467 207.404 251.027 207.496 250.613 207.711C250.199 207.925 249.857 208.264 249.587 208.728C249.318 209.179 249.161 209.757 249.117 210.462C249.073 211.167 249.155 211.767 249.364 212.261C249.574 212.755 249.864 213.134 250.234 213.398C250.619 213.663 251.043 213.81 251.509 213.839ZM267.959 216.94C266.961 216.877 266.096 216.609 265.364 216.136C264.634 215.649 264.08 214.999 263.704 214.187C263.327 213.375 263.172 212.457 263.236 211.432C263.303 210.368 263.568 209.449 264.031 208.677C264.507 207.905 265.139 207.317 265.926 206.913C266.726 206.509 267.632 206.339 268.643 206.403C269.628 206.465 270.472 206.738 271.177 207.224C271.881 207.709 272.409 208.337 272.761 209.107C273.114 209.864 273.262 210.702 273.204 211.62C273.196 211.753 273.186 211.899 273.176 212.059C273.166 212.219 273.143 212.384 273.105 212.556L264.921 212.04L265.018 210.503L270.827 210.869C270.846 210.135 270.636 209.548 270.196 209.106C269.757 208.65 269.192 208.401 268.5 208.357C268.008 208.326 267.548 208.411 267.121 208.611C266.695 208.811 266.347 209.13 266.079 209.567C265.812 209.992 265.657 210.543 265.614 211.221L265.578 211.8C265.538 212.426 265.617 212.972 265.815 213.439C266.026 213.906 266.324 214.272 266.708 214.537C267.106 214.789 267.558 214.931 268.063 214.963C268.622 214.998 269.089 214.907 269.463 214.691C269.851 214.475 270.144 214.172 270.342 213.784L272.777 213.938C272.552 214.551 272.21 215.098 271.752 215.576C271.295 216.042 270.745 216.401 270.101 216.655C269.458 216.895 268.744 216.99 267.959 216.94ZM278.214 217.587C277.389 217.535 276.713 217.352 276.185 217.038C275.657 216.724 275.275 216.326 275.038 215.844C274.801 215.361 274.7 214.847 274.734 214.302C274.775 213.663 274.969 213.121 275.318 212.675C275.68 212.23 276.188 211.902 276.843 211.689C277.498 211.463 278.292 211.38 279.223 211.438L281.758 211.598C281.792 211.066 281.746 210.622 281.622 210.267C281.498 209.898 281.289 209.618 280.993 209.426C280.698 209.233 280.311 209.122 279.832 209.092C279.287 209.058 278.813 209.155 278.411 209.383C278.01 209.598 277.747 209.956 277.622 210.456L275.267 210.307C275.392 209.594 275.67 208.997 276.101 208.516C276.533 208.022 277.084 207.656 277.753 207.418C278.437 207.167 279.172 207.066 279.957 207.116C280.902 207.175 281.696 207.393 282.341 207.767C282.986 208.129 283.462 208.626 283.769 209.26C284.091 209.882 284.225 210.618 284.171 211.47L283.779 217.697L281.743 217.569L281.605 215.937C281.455 216.195 281.267 216.43 281.039 216.643C280.826 216.857 280.58 217.041 280.303 217.198C280.027 217.341 279.713 217.448 279.361 217.519C279.022 217.591 278.64 217.614 278.214 217.587ZM278.873 215.725C279.259 215.749 279.602 215.704 279.903 215.589C280.219 215.462 280.491 215.279 280.72 215.04C280.963 214.788 281.154 214.506 281.294 214.194C281.434 213.882 281.535 213.548 281.598 213.191L281.6 213.151L279.385 213.012C278.919 212.982 278.529 213.018 278.216 213.118C277.903 213.205 277.673 213.351 277.527 213.556C277.38 213.76 277.298 214.002 277.281 214.282C277.263 214.561 277.314 214.805 277.435 215.013C277.555 215.221 277.739 215.386 277.985 215.508C278.231 215.631 278.527 215.703 278.873 215.725ZM290.354 218.112C289.675 218.069 289.089 217.925 288.597 217.681C288.118 217.437 287.755 217.06 287.506 216.55C287.258 216.04 287.16 215.366 287.213 214.527L287.507 209.856L285.791 209.748L285.918 207.732L287.635 207.84L288.081 205.203L290.197 205.337L290.03 207.992L292.764 208.164L292.637 210.18L289.903 210.008L289.608 214.678C289.576 215.184 289.661 215.543 289.861 215.756C290.075 215.957 290.442 216.073 290.961 216.106L292.199 216.184L292.07 218.22L290.354 218.112ZM298.857 218.648L299.764 204.277L302.159 204.428L301.253 218.799L298.857 218.648ZM307.064 219.406C306.239 219.354 305.563 219.171 305.035 218.857C304.507 218.543 304.124 218.145 303.888 217.663C303.651 217.18 303.55 216.666 303.584 216.121C303.624 215.482 303.819 214.94 304.168 214.494C304.53 214.049 305.038 213.721 305.693 213.508C306.348 213.282 307.142 213.199 308.073 213.257L310.608 213.417C310.642 212.885 310.596 212.441 310.472 212.086C310.348 211.717 310.138 211.437 309.843 211.245C309.548 211.052 309.161 210.941 308.682 210.911C308.136 210.877 307.663 210.974 307.261 211.202C306.86 211.417 306.597 211.775 306.472 212.275L304.116 212.126C304.242 211.413 304.52 210.816 304.951 210.335C305.383 209.841 305.934 209.475 306.603 209.237C307.287 208.986 308.021 208.885 308.807 208.935C309.751 208.995 310.546 209.212 311.19 209.586C311.835 209.948 312.312 210.445 312.619 211.079C312.941 211.701 313.075 212.437 313.021 213.289L312.628 219.516L310.592 219.388L310.455 217.756C310.305 218.014 310.116 218.249 309.889 218.462C309.675 218.676 309.43 218.861 309.153 219.017C308.877 219.16 308.563 219.267 308.211 219.338C307.872 219.41 307.49 219.433 307.064 219.406ZM307.723 217.544C308.109 217.568 308.452 217.523 308.753 217.408C309.069 217.281 309.341 217.098 309.569 216.859C309.812 216.607 310.004 216.325 310.144 216.013C310.284 215.701 310.385 215.367 310.447 215.01L310.45 214.97L308.234 214.831C307.769 214.801 307.379 214.837 307.065 214.937C306.753 215.024 306.523 215.17 306.376 215.375C306.23 215.579 306.148 215.821 306.13 216.101C306.113 216.38 306.164 216.624 306.285 216.832C306.405 217.04 306.588 217.205 306.835 217.327C307.081 217.45 307.377 217.522 307.723 217.544ZM319.203 219.931C318.525 219.888 317.939 219.744 317.447 219.5C316.968 219.256 316.604 218.879 316.356 218.369C316.108 217.859 316.01 217.185 316.063 216.346L316.357 211.676L314.641 211.567L314.768 209.551L316.484 209.66L316.931 207.022L319.047 207.156L318.88 209.811L321.614 209.983L321.487 211.999L318.752 211.827L318.458 216.497C318.426 217.003 318.51 217.362 318.711 217.575C318.925 217.776 319.292 217.893 319.811 217.925L321.048 218.003L320.92 220.039L319.203 219.931ZM327.476 220.693C326.478 220.63 325.613 220.362 324.881 219.888C324.151 219.401 323.597 218.752 323.221 217.94C322.844 217.128 322.688 216.21 322.753 215.185C322.82 214.12 323.085 213.202 323.548 212.43C324.024 211.658 324.656 211.07 325.443 210.665C326.243 210.261 327.149 210.091 328.16 210.155C329.145 210.217 329.989 210.491 330.694 210.976C331.398 211.462 331.926 212.089 332.278 212.86C332.631 213.617 332.779 214.454 332.721 215.373C332.713 215.506 332.703 215.652 332.693 215.812C332.683 215.971 332.659 216.137 332.622 216.308L324.438 215.792L324.535 214.255L330.344 214.622C330.363 213.888 330.153 213.3 329.713 212.858C329.274 212.403 328.709 212.154 328.017 212.11C327.525 212.079 327.065 212.164 326.638 212.364C326.212 212.564 325.864 212.883 325.596 213.32C325.329 213.744 325.174 214.296 325.131 214.974L325.095 215.553C325.055 216.178 325.134 216.725 325.332 217.191C325.543 217.659 325.84 218.025 326.225 218.29C326.623 218.542 327.075 218.684 327.58 218.716C328.139 218.751 328.606 218.66 328.98 218.443C329.368 218.227 329.661 217.925 329.859 217.537L332.294 217.69C332.069 218.304 331.727 218.85 331.269 219.329C330.812 219.795 330.262 220.154 329.618 220.407C328.975 220.647 328.261 220.743 327.476 220.693Z" fill="#40800C"/>
<path d="M473.45 137.945L183.946 99.8488C167.793 97.7232 152.975 109.095 150.849 125.248C148.724 141.401 160.095 156.219 176.248 158.345L465.752 196.441C481.906 198.567 496.723 187.195 498.849 171.042C500.975 154.889 489.603 140.071 473.45 137.945Z" fill="#CE7BF4"/>
<path d="M195.771 138.382L197.086 128.388L199.188 128.665L199.207 130.059C199.59 129.598 200.058 129.263 200.61 129.054C201.177 128.832 201.797 128.766 202.472 128.855C202.974 128.921 203.415 129.046 203.794 129.23C204.186 129.417 204.517 129.662 204.786 129.966C205.069 130.272 205.283 130.637 205.429 131.059C205.872 130.553 206.412 130.18 207.049 129.941C207.686 129.702 208.354 129.629 209.055 129.721C209.888 129.831 210.572 130.096 211.109 130.516C211.647 130.923 212.025 131.477 212.242 132.178C212.46 132.866 212.507 133.685 212.382 134.637L211.615 140.467L209.255 140.156L209.991 134.565C210.102 133.719 210.016 133.048 209.731 132.553C209.447 132.059 208.967 131.767 208.293 131.678C207.83 131.618 207.406 131.676 207.019 131.854C206.646 132.033 206.331 132.328 206.076 132.738C205.822 133.135 205.654 133.644 205.572 134.266L204.873 139.58L202.513 139.269L203.249 133.677C203.36 132.831 203.274 132.161 202.989 131.666C202.705 131.172 202.219 130.879 201.531 130.789C201.095 130.731 200.684 130.791 200.297 130.969C199.924 131.149 199.609 131.443 199.354 131.854C199.1 132.251 198.932 132.76 198.85 133.381L198.151 138.695L195.771 138.382ZM218.559 141.623C217.607 141.498 216.777 141.166 216.067 140.629C215.373 140.081 214.859 139.388 214.525 138.55C214.207 137.701 214.114 136.768 214.248 135.75C214.386 134.706 214.724 133.822 215.263 133.1C215.803 132.364 216.479 131.828 217.29 131.491C218.116 131.142 219.005 131.03 219.957 131.156C220.908 131.281 221.731 131.618 222.426 132.166C223.135 132.704 223.65 133.39 223.97 134.226C224.304 135.063 224.402 136.004 224.265 137.048C224.127 138.092 223.789 138.976 223.25 139.698C222.711 140.421 222.029 140.956 221.203 141.305C220.392 141.642 219.511 141.748 218.559 141.623ZM218.828 139.58C219.304 139.643 219.749 139.581 220.164 139.393C220.591 139.207 220.956 138.892 221.256 138.448C221.557 138.003 221.753 137.43 221.845 136.73C221.938 136.029 221.895 135.432 221.718 134.938C221.556 134.432 221.292 134.035 220.927 133.744C220.575 133.456 220.161 133.28 219.685 133.218C219.222 133.157 218.777 133.219 218.349 133.405C217.921 133.591 217.557 133.906 217.257 134.351C216.958 134.782 216.762 135.348 216.67 136.049C216.578 136.749 216.619 137.353 216.795 137.86C216.97 138.368 217.234 138.765 217.586 139.054C217.951 139.344 218.365 139.519 218.828 139.58ZM229.692 143.088C228.807 142.971 228.052 142.731 227.427 142.366C226.818 141.99 226.354 141.526 226.037 140.973C225.735 140.409 225.594 139.792 225.615 139.122L227.994 139.435C228.024 139.721 228.109 139.995 228.25 140.255C228.392 140.503 228.6 140.712 228.873 140.882C229.16 141.054 229.508 141.167 229.918 141.221C230.314 141.273 230.645 141.263 230.91 141.191C231.177 141.105 231.382 140.977 231.526 140.808C231.669 140.638 231.754 140.448 231.782 140.236C231.824 139.919 231.77 139.663 231.621 139.469C231.472 139.274 231.238 139.109 230.92 138.973C230.616 138.825 230.246 138.676 229.809 138.524C229.345 138.369 228.897 138.196 228.465 138.004C228.048 137.801 227.675 137.571 227.346 137.312C227.03 137.056 226.788 136.748 226.62 136.39C226.465 136.033 226.419 135.617 226.482 135.141C226.558 134.559 226.779 134.057 227.144 133.635C227.522 133.214 228.019 132.909 228.636 132.721C229.267 132.522 229.993 132.476 230.812 132.584C231.976 132.737 232.865 133.13 233.481 133.762C234.112 134.383 234.424 135.184 234.416 136.165L232.155 135.867C232.138 135.489 231.99 135.18 231.712 134.942C231.436 134.69 231.047 134.531 230.545 134.465C230.029 134.397 229.619 134.444 229.316 134.606C229.027 134.756 228.862 134.99 228.82 135.308C228.794 135.506 228.849 135.701 228.985 135.894C229.136 136.075 229.362 136.246 229.664 136.407C229.967 136.555 230.343 136.712 230.792 136.878C231.513 137.121 232.145 137.379 232.687 137.652C233.229 137.925 233.641 138.275 233.921 138.702C234.201 139.129 234.295 139.693 234.202 140.393C234.132 141.029 233.893 141.57 233.485 142.013C233.09 142.459 232.57 142.781 231.926 142.978C231.283 143.163 230.538 143.199 229.692 143.088ZM239.913 144.191C239.239 144.102 238.664 143.919 238.19 143.641C237.729 143.365 237.391 142.965 237.178 142.439C236.965 141.913 236.913 141.234 237.023 140.401L237.633 135.761L235.928 135.537L236.192 133.534L237.897 133.759L238.521 131.158L240.623 131.434L240.276 134.072L242.993 134.429L242.729 136.432L240.013 136.074L239.402 140.714C239.336 141.217 239.396 141.581 239.581 141.807C239.782 142.022 240.139 142.163 240.655 142.231L241.884 142.393L241.618 144.415L239.913 144.191ZM243.718 144.691L245.597 130.415L247.976 130.728L246.098 145.005L243.718 144.691ZM249.19 149.849L252.349 144.698L251.754 144.619L248.938 135.211L251.535 135.553L253.617 142.726L257.325 136.315L259.844 136.647L251.708 150.181L249.19 149.849ZM264.695 147.452L266.574 133.175L268.953 133.488L267.075 147.765L264.695 147.452ZM269.631 148.101L270.946 138.108L273.325 138.421L272.01 148.414L269.631 148.101ZM272.344 136.678C271.908 136.62 271.562 136.44 271.306 136.138C271.065 135.824 270.97 135.468 271.023 135.072C271.076 134.662 271.259 134.35 271.569 134.135C271.895 133.909 272.276 133.824 272.712 133.882C273.148 133.939 273.488 134.118 273.731 134.419C273.989 134.709 274.09 135.058 274.037 135.468C273.984 135.865 273.795 136.183 273.467 136.422C273.155 136.65 272.781 136.735 272.344 136.678ZM281.006 149.598L277.304 143.544L281.865 139.544L284.701 139.918L279.04 144.76L279.283 142.916L283.98 149.99L281.006 149.598ZM274.562 148.75L276.44 134.473L278.82 134.786L276.941 149.063L274.562 148.75ZM289.236 150.923C288.245 150.793 287.4 150.467 286.702 149.944C286.006 149.409 285.498 148.723 285.177 147.888C284.857 147.052 284.764 146.126 284.898 145.108C285.037 144.05 285.364 143.152 285.878 142.412C286.405 141.675 287.075 141.131 287.888 140.781C288.714 140.432 289.629 140.324 290.634 140.456C291.612 140.585 292.436 140.915 293.105 141.447C293.775 141.979 294.26 142.641 294.559 143.434C294.86 144.213 294.95 145.059 294.83 145.971C294.813 146.103 294.793 146.248 294.773 146.407C294.752 146.566 294.717 146.729 294.668 146.898L286.538 145.828L286.739 144.301L292.509 145.06C292.578 144.33 292.408 143.729 292 143.258C291.593 142.775 291.045 142.487 290.358 142.397C289.869 142.332 289.405 142.386 288.965 142.557C288.526 142.727 288.158 143.022 287.861 143.44C287.565 143.845 287.373 144.384 287.285 145.059L287.209 145.634C287.127 146.255 287.169 146.805 287.335 147.284C287.513 147.765 287.785 148.15 288.151 148.441C288.531 148.719 288.972 148.892 289.475 148.958C290.03 149.031 290.501 148.972 290.89 148.781C291.291 148.592 291.604 148.31 291.828 147.936L294.247 148.254C293.98 148.851 293.602 149.373 293.113 149.82C292.626 150.253 292.052 150.574 291.393 150.784C290.735 150.979 290.016 151.026 289.236 150.923ZM296.124 151.588L298.003 137.311L300.382 137.624L298.504 151.901L296.124 151.588ZM301.596 156.746L304.755 151.594L304.16 151.516L301.344 142.108L303.941 142.449L306.023 149.622L309.731 143.211L312.25 143.543L304.114 157.077L301.596 156.746ZM321.444 154.92C320.769 154.831 320.195 154.648 319.721 154.37C319.259 154.094 318.922 153.693 318.709 153.168C318.496 152.642 318.444 151.963 318.553 151.13L319.164 146.49L317.459 146.266L317.722 144.263L319.428 144.487L320.052 141.887L322.154 142.163L321.807 144.8L324.524 145.158L324.26 147.161L321.543 146.803L320.933 151.443C320.867 151.946 320.926 152.31 321.112 152.536C321.312 152.751 321.67 152.892 322.186 152.96L323.415 153.121L323.149 155.144L321.444 154.92ZM329.626 156.238C328.674 156.113 327.843 155.782 327.134 155.245C326.44 154.696 325.926 154.003 325.592 153.166C325.273 152.317 325.181 151.384 325.315 150.366C325.452 149.321 325.791 148.438 326.329 147.715C326.87 146.98 327.546 146.443 328.357 146.106C329.183 145.758 330.071 145.646 331.023 145.771C331.975 145.896 332.798 146.233 333.492 146.782C334.202 147.319 334.717 148.006 335.037 148.841C335.371 149.678 335.469 150.619 335.331 151.664C335.194 152.708 334.856 153.591 334.317 154.314C333.778 155.036 333.096 155.572 332.27 155.921C331.459 156.258 330.577 156.364 329.626 156.238ZM329.894 154.196C330.37 154.259 330.816 154.196 331.23 154.009C331.658 153.823 332.022 153.508 332.323 153.063C332.624 152.619 332.82 152.046 332.912 151.345C333.004 150.645 332.962 150.047 332.785 149.553C332.623 149.048 332.359 148.65 331.994 148.36C331.642 148.072 331.228 147.896 330.752 147.833C330.289 147.773 329.844 147.835 329.416 148.021C328.988 148.206 328.624 148.522 328.323 148.966C328.024 149.398 327.829 149.964 327.737 150.664C327.645 151.365 327.686 151.969 327.861 152.476C328.037 152.983 328.3 153.381 328.652 153.669C329.018 153.96 329.432 154.135 329.894 154.196ZM345.402 158.314C344.516 158.198 343.761 157.957 343.137 157.593C342.527 157.217 342.064 156.752 341.747 156.199C341.444 155.635 341.303 155.018 341.324 154.348L343.704 154.662C343.733 154.948 343.818 155.221 343.959 155.482C344.101 155.729 344.309 155.938 344.583 156.109C344.869 156.281 345.217 156.394 345.627 156.448C346.024 156.5 346.355 156.49 346.62 156.417C346.887 156.331 347.092 156.203 347.235 156.034C347.378 155.865 347.464 155.674 347.492 155.463C347.533 155.145 347.48 154.89 347.331 154.695C347.181 154.501 346.947 154.335 346.629 154.199C346.326 154.052 345.956 153.902 345.518 153.751C345.055 153.595 344.607 153.422 344.175 153.231C343.757 153.028 343.384 152.797 343.055 152.539C342.739 152.282 342.497 151.975 342.329 151.616C342.175 151.26 342.129 150.843 342.191 150.368C342.268 149.786 342.488 149.284 342.853 148.861C343.232 148.44 343.729 148.136 344.345 147.948C344.977 147.749 345.702 147.703 346.522 147.811C347.685 147.964 348.575 148.357 349.191 148.989C349.822 149.61 350.133 150.411 350.125 151.391L347.865 151.094C347.848 150.715 347.7 150.407 347.422 150.168C347.146 149.917 346.756 149.758 346.254 149.692C345.739 149.624 345.329 149.671 345.025 149.833C344.736 149.983 344.571 150.217 344.529 150.534C344.503 150.732 344.558 150.928 344.694 151.121C344.845 151.302 345.072 151.473 345.373 151.634C345.677 151.781 346.053 151.938 346.501 152.105C347.223 152.348 347.854 152.606 348.397 152.879C348.939 153.152 349.35 153.502 349.63 153.929C349.91 154.355 350.004 154.919 349.912 155.62C349.842 156.256 349.602 156.796 349.194 157.24C348.8 157.686 348.28 158.007 347.635 158.205C346.992 158.389 346.248 158.426 345.402 158.314ZM356.336 159.753C355.358 159.625 354.508 159.291 353.785 158.752C353.078 158.202 352.557 157.508 352.223 156.67C351.905 155.821 351.811 154.895 351.944 153.89C352.081 152.846 352.413 151.961 352.938 151.237C353.479 150.501 354.162 149.959 354.988 149.611C355.827 149.264 356.742 149.156 357.734 149.286C358.976 149.45 359.977 149.918 360.736 150.69C361.497 151.449 361.922 152.413 362.01 153.581L359.512 153.252C359.446 152.732 359.22 152.299 358.835 151.953C358.464 151.608 357.994 151.398 357.425 151.323C356.936 151.259 356.47 151.325 356.027 151.523C355.598 151.722 355.233 152.043 354.932 152.488C354.645 152.934 354.457 153.495 354.368 154.169C354.3 154.684 354.306 155.149 354.386 155.563C354.466 155.977 354.607 156.338 354.808 156.647C355.025 156.945 355.282 157.187 355.58 157.374C355.878 157.561 356.212 157.679 356.583 157.728C356.966 157.779 357.318 157.764 357.637 157.685C357.972 157.595 358.261 157.438 358.506 157.215C358.764 156.993 358.962 156.716 359.099 156.385L361.598 156.714C361.214 157.793 360.554 158.614 359.62 159.177C358.687 159.726 357.592 159.919 356.336 159.753ZM367.871 161.271C366.919 161.146 366.089 160.815 365.379 160.278C364.685 159.729 364.171 159.036 363.837 158.199C363.519 157.35 363.426 156.416 363.56 155.399C363.698 154.354 364.036 153.471 364.575 152.748C365.115 152.012 365.791 151.476 366.602 151.139C367.428 150.79 368.317 150.679 369.268 150.804C370.22 150.929 371.043 151.266 371.738 151.815C372.447 152.352 372.962 153.038 373.282 153.874C373.616 154.711 373.714 155.652 373.577 156.696C373.439 157.741 373.101 158.624 372.562 159.347C372.023 160.069 371.341 160.605 370.515 160.953C369.704 161.29 368.823 161.396 367.871 161.271ZM368.14 159.229C368.616 159.291 369.061 159.229 369.476 159.041C369.903 158.856 370.268 158.54 370.568 158.096C370.869 157.651 371.065 157.079 371.157 156.378C371.25 155.677 371.207 155.08 371.03 154.586C370.868 154.081 370.604 153.683 370.239 153.393C369.887 153.104 369.473 152.929 368.997 152.866C368.534 152.805 368.089 152.868 367.661 153.054C367.233 153.239 366.869 153.554 366.569 153.999C366.27 154.43 366.074 154.996 365.982 155.697C365.89 156.398 365.931 157.002 366.107 157.509C366.282 158.016 366.546 158.414 366.898 158.702C367.263 158.992 367.677 159.168 368.14 159.229ZM375.05 161.974L376.365 151.98L378.487 152.259L378.46 154.152C378.755 153.747 379.101 153.416 379.498 153.159C379.897 152.888 380.345 152.699 380.844 152.589C381.356 152.482 381.902 152.467 382.484 152.543L382.153 155.061L381.32 154.952C380.923 154.9 380.539 154.903 380.169 154.962C379.799 155.007 379.468 155.125 379.174 155.315C378.895 155.493 378.658 155.765 378.462 156.129C378.268 156.48 378.133 156.94 378.058 157.508L377.429 162.287L375.05 161.974ZM387.168 163.811C386.177 163.68 385.332 163.354 384.634 162.832C383.938 162.296 383.43 161.611 383.11 160.775C382.789 159.939 382.696 159.013 382.83 157.995C382.969 156.937 383.296 156.039 383.81 155.3C384.337 154.562 385.007 154.018 385.82 153.668C386.646 153.319 387.561 153.211 388.566 153.343C389.544 153.472 390.368 153.802 391.038 154.334C391.707 154.866 392.192 155.528 392.491 156.321C392.792 157.1 392.882 157.946 392.762 158.858C392.745 158.99 392.726 159.136 392.705 159.294C392.684 159.453 392.649 159.616 392.6 159.785L384.47 158.715L384.671 157.188L390.441 157.947C390.51 157.217 390.341 156.616 389.932 156.146C389.525 155.662 388.978 155.374 388.29 155.284C387.801 155.22 387.337 155.273 386.898 155.444C386.458 155.614 386.09 155.909 385.793 156.327C385.498 156.732 385.305 157.272 385.217 157.946L385.141 158.521C385.059 159.142 385.101 159.692 385.267 160.171C385.446 160.652 385.718 161.038 386.083 161.328C386.463 161.606 386.904 161.779 387.407 161.845C387.962 161.918 388.434 161.859 388.822 161.668C389.223 161.479 389.536 161.197 389.76 160.823L392.179 161.141C391.913 161.738 391.535 162.26 391.045 162.707C390.558 163.14 389.985 163.462 389.325 163.671C388.667 163.867 387.948 163.913 387.168 163.811ZM401.999 165.762C401.18 165.654 400.517 165.426 400.012 165.077C399.506 164.728 399.152 164.305 398.948 163.807C398.745 163.31 398.679 162.79 398.75 162.248C398.833 161.614 399.064 161.086 399.442 160.665C399.834 160.246 400.363 159.952 401.031 159.785C401.7 159.604 402.497 159.574 403.423 159.696L405.941 160.027C406.011 159.499 405.995 159.053 405.895 158.69C405.797 158.314 405.607 158.02 405.325 157.808C405.044 157.596 404.665 157.459 404.189 157.396C403.647 157.325 403.168 157.39 402.752 157.591C402.337 157.778 402.05 158.117 401.892 158.607L399.552 158.299C399.725 157.596 400.043 157.019 400.506 156.569C400.97 156.105 401.545 155.778 402.229 155.585C402.928 155.381 403.668 155.331 404.448 155.433C405.386 155.557 406.164 155.827 406.782 156.245C407.401 156.649 407.842 157.178 408.106 157.831C408.385 158.473 408.468 159.217 408.357 160.063L407.543 166.25L405.52 165.983L405.494 164.346C405.327 164.593 405.123 164.815 404.882 165.012C404.654 165.21 404.396 165.378 404.109 165.515C403.824 165.639 403.504 165.725 403.148 165.772C402.805 165.821 402.422 165.818 401.999 165.762ZM402.782 163.949C403.166 163.999 403.512 163.978 403.82 163.884C404.143 163.778 404.427 163.614 404.671 163.391C404.931 163.156 405.141 162.888 405.302 162.586C405.463 162.284 405.586 161.958 405.673 161.606L405.678 161.566L403.477 161.277C403.014 161.216 402.623 161.225 402.303 161.304C401.985 161.369 401.747 161.499 401.586 161.694C401.426 161.888 401.328 162.124 401.292 162.401C401.255 162.679 401.29 162.925 401.396 163.141C401.502 163.357 401.674 163.534 401.911 163.673C402.148 163.812 402.439 163.904 402.782 163.949ZM418.128 172.323C417.19 172.199 416.379 171.971 415.697 171.639C415.026 171.323 414.523 170.9 414.189 170.372C413.867 169.859 413.752 169.252 413.844 168.551C413.898 168.142 414.05 167.751 414.3 167.381C414.562 167.025 414.92 166.709 415.373 166.433C415.841 166.145 416.416 165.918 417.097 165.752L417.996 167.04C417.332 167.181 416.854 167.394 416.561 167.678C416.268 167.963 416.1 168.27 416.056 168.6C416.011 168.944 416.079 169.242 416.261 169.495C416.455 169.762 416.729 169.98 417.083 170.148C417.451 170.317 417.873 170.433 418.349 170.496C418.811 170.557 419.223 170.544 419.584 170.457C419.944 170.383 420.231 170.246 420.445 170.045C420.673 169.847 420.808 169.589 420.85 169.272C420.902 168.875 420.806 168.533 420.561 168.245C420.315 167.971 419.785 167.753 418.973 167.592C418.279 167.447 417.674 167.294 417.157 167.132C416.642 166.956 416.202 166.777 415.836 166.595C415.483 166.414 415.185 166.226 414.942 166.033C414.7 165.826 414.504 165.626 414.355 165.431L414.415 164.975L416.784 163.068L418.473 163.875L415.833 165.848L416.599 164.779C416.72 164.889 416.84 164.992 416.962 165.089C417.097 165.187 417.266 165.283 417.469 165.377C417.687 165.46 417.97 165.551 418.32 165.651C418.67 165.75 419.126 165.864 419.688 165.992C420.565 166.175 421.264 166.428 421.786 166.752C422.308 167.076 422.674 167.467 422.883 167.925C423.091 168.383 423.157 168.909 423.078 169.504C423.002 170.086 422.764 170.613 422.366 171.085C421.981 171.559 421.436 171.917 420.732 172.161C420.027 172.404 419.159 172.458 418.128 172.323ZM419.128 164.728C418.295 164.618 417.595 164.365 417.029 163.968C416.478 163.559 416.079 163.063 415.833 162.479C415.589 161.882 415.51 161.253 415.597 160.592C415.686 159.918 415.925 159.331 416.313 158.83C416.702 158.33 417.215 157.954 417.854 157.702C418.505 157.451 419.247 157.381 420.08 157.49C420.913 157.6 421.605 157.859 422.156 158.268C422.708 158.677 423.106 159.173 423.352 159.757C423.598 160.34 423.677 160.969 423.588 161.644C423.501 162.305 423.263 162.892 422.872 163.405C422.484 163.906 421.97 164.282 421.332 164.534C420.695 164.773 419.961 164.838 419.128 164.728ZM419.37 162.884C419.939 162.959 420.415 162.867 420.799 162.608C421.182 162.349 421.412 161.935 421.486 161.367C421.561 160.799 421.446 160.346 421.14 160.01C420.837 159.661 420.401 159.449 419.832 159.374C419.264 159.299 418.781 159.391 418.384 159.648C417.989 159.891 417.754 160.298 417.679 160.866C417.604 161.434 417.725 161.894 418.042 162.245C418.359 162.596 418.802 162.809 419.37 162.884ZM421.465 159.69L421.239 157.885L425.343 158.425L425.147 159.912L421.465 159.69ZM430.172 169.47C429.22 169.344 428.39 169.013 427.68 168.476C426.986 167.927 426.472 167.234 426.138 166.397C425.82 165.548 425.727 164.615 425.861 163.597C425.999 162.553 426.337 161.669 426.876 160.947C427.416 160.211 428.092 159.674 428.903 159.337C429.729 158.989 430.618 158.877 431.57 159.002C432.521 159.128 433.345 159.465 434.039 160.013C434.748 160.55 435.263 161.237 435.583 162.072C435.917 162.91 436.015 163.85 435.878 164.895C435.74 165.939 435.402 166.823 434.863 167.545C434.324 168.268 433.642 168.803 432.816 169.152C432.005 169.489 431.124 169.595 430.172 169.47ZM430.441 167.427C430.917 167.49 431.362 167.427 431.777 167.24C432.205 167.054 432.569 166.739 432.869 166.294C433.17 165.85 433.366 165.277 433.459 164.576C433.551 163.876 433.508 163.279 433.331 162.785C433.169 162.279 432.905 161.881 432.54 161.591C432.188 161.303 431.774 161.127 431.298 161.065C430.836 161.004 430.39 161.066 429.962 161.252C429.535 161.438 429.17 161.753 428.87 162.197C428.571 162.629 428.375 163.195 428.283 163.895C428.191 164.596 428.233 165.2 428.408 165.707C428.583 166.214 428.847 166.612 429.199 166.901C429.564 167.191 429.978 167.366 430.441 167.427ZM440.651 170.848C439.832 170.741 439.169 170.512 438.664 170.163C438.158 169.814 437.804 169.391 437.6 168.894C437.397 168.396 437.33 167.877 437.402 167.335C437.485 166.7 437.716 166.172 438.094 165.751C438.486 165.332 439.015 165.039 439.683 164.871C440.352 164.69 441.149 164.661 442.075 164.782L444.593 165.114C444.663 164.585 444.647 164.139 444.547 163.776C444.449 163.4 444.259 163.106 443.977 162.894C443.696 162.683 443.317 162.545 442.841 162.483C442.299 162.411 441.82 162.476 441.404 162.677C440.989 162.864 440.702 163.203 440.544 163.693L438.204 163.385C438.377 162.682 438.695 162.105 439.158 161.655C439.622 161.192 440.197 160.864 440.881 160.671C441.58 160.468 442.32 160.417 443.1 160.52C444.038 160.643 444.816 160.914 445.434 161.331C446.053 161.735 446.494 162.264 446.758 162.917C447.037 163.559 447.12 164.303 447.009 165.149L446.195 171.336L444.172 171.07L444.146 169.432C443.979 169.679 443.775 169.901 443.534 170.098C443.306 170.297 443.048 170.465 442.761 170.602C442.476 170.726 442.156 170.811 441.8 170.858C441.457 170.907 441.074 170.904 440.651 170.848ZM441.434 169.035C441.818 169.086 442.164 169.064 442.472 168.97C442.795 168.865 443.079 168.7 443.323 168.477C443.583 168.242 443.793 167.974 443.954 167.672C444.114 167.371 444.238 167.044 444.325 166.692L444.33 166.653L442.129 166.363C441.666 166.302 441.275 166.311 440.955 166.39C440.637 166.456 440.398 166.586 440.238 166.78C440.078 166.974 439.98 167.21 439.944 167.487C439.907 167.765 439.942 168.012 440.048 168.227C440.154 168.443 440.326 168.62 440.563 168.759C440.8 168.898 441.091 168.99 441.434 169.035ZM448.539 171.644L450.418 157.367L452.797 157.681L450.919 171.958L448.539 171.644Z" fill="black"/>
<path d="M392.064 319.886L100.481 335.49C84.2119 336.361 71.729 350.255 72.5997 366.524C73.4703 382.793 87.3649 395.276 103.634 394.406L395.217 378.801C411.486 377.931 423.969 364.036 423.098 347.767C422.227 331.498 408.333 319.015 392.064 319.886Z" fill="#4BBDF1"/>
<path d="M119.168 371.202L118.63 361.137L120.747 361.024L121.02 362.391C121.313 361.868 121.711 361.453 122.215 361.145C122.732 360.824 123.33 360.645 124.009 360.609C124.515 360.581 124.971 360.624 125.378 360.736C125.798 360.847 126.168 361.027 126.488 361.277C126.822 361.526 127.1 361.845 127.321 362.234C127.664 361.655 128.126 361.189 128.708 360.838C129.29 360.486 129.934 360.291 130.64 360.254C131.479 360.209 132.2 360.344 132.804 360.659C133.408 360.96 133.881 361.436 134.223 362.085C134.564 362.721 134.76 363.518 134.811 364.477L135.126 370.348L132.749 370.476L132.448 364.844C132.402 363.992 132.194 363.348 131.824 362.914C131.453 362.48 130.928 362.281 130.249 362.318C129.783 362.342 129.377 362.478 129.029 362.723C128.695 362.968 128.44 363.316 128.264 363.766C128.087 364.202 128.015 364.734 128.049 365.359L128.335 370.712L125.959 370.839L125.657 365.207C125.612 364.355 125.404 363.712 125.033 363.278C124.663 362.843 124.132 362.645 123.439 362.682C123 362.706 122.606 362.84 122.259 363.086C121.925 363.33 121.67 363.678 121.494 364.128C121.317 364.565 121.245 365.096 121.279 365.722L121.565 371.074L119.168 371.202ZM142.164 370.212C141.205 370.263 140.328 370.09 139.532 369.692C138.749 369.28 138.117 368.693 137.636 367.931C137.167 367.155 136.905 366.254 136.85 365.229C136.794 364.177 136.964 363.247 137.362 362.438C137.758 361.615 138.324 360.964 139.06 360.484C139.808 359.99 140.661 359.717 141.62 359.666C142.578 359.615 143.449 359.795 144.232 360.207C145.028 360.605 145.66 361.186 146.128 361.948C146.609 362.71 146.878 363.617 146.935 364.669C146.991 365.721 146.82 366.652 146.423 367.461C146.026 368.27 145.453 368.921 144.705 369.415C143.97 369.895 143.123 370.161 142.164 370.212ZM142.054 368.155C142.533 368.129 142.96 367.986 143.333 367.726C143.719 367.465 144.02 367.088 144.234 366.596C144.448 366.104 144.536 365.505 144.498 364.8C144.46 364.094 144.309 363.515 144.045 363.061C143.793 362.594 143.46 362.251 143.048 362.033C142.649 361.814 142.21 361.717 141.731 361.743C141.265 361.768 140.838 361.911 140.452 362.172C140.065 362.433 139.765 362.81 139.551 363.302C139.336 363.781 139.248 364.373 139.286 365.079C139.323 365.784 139.475 366.37 139.74 366.837C140.005 367.303 140.338 367.646 140.737 367.865C141.149 368.083 141.588 368.18 142.054 368.155ZM153.377 369.612C152.485 369.66 151.699 369.562 151.018 369.318C150.35 369.06 149.809 368.688 149.396 368.203C148.996 367.703 148.744 367.123 148.642 366.461L151.039 366.332C151.12 366.608 151.254 366.862 151.44 367.092C151.625 367.309 151.868 367.476 152.168 367.594C152.481 367.711 152.844 367.758 153.257 367.736C153.656 367.714 153.98 367.644 154.227 367.524C154.473 367.39 154.652 367.227 154.762 367.034C154.871 366.842 154.921 366.639 154.909 366.426C154.892 366.106 154.792 365.864 154.61 365.701C154.428 365.537 154.168 365.417 153.83 365.342C153.505 365.252 153.113 365.173 152.655 365.104C152.171 365.037 151.699 364.948 151.239 364.839C150.792 364.717 150.383 364.558 150.012 364.364C149.654 364.17 149.36 363.912 149.129 363.59C148.912 363.268 148.79 362.867 148.765 362.388C148.733 361.802 148.858 361.268 149.14 360.786C149.434 360.303 149.867 359.912 150.439 359.615C151.023 359.303 151.728 359.125 152.553 359.081C153.725 359.018 154.672 359.241 155.393 359.75C156.127 360.245 156.58 360.975 156.752 361.941L154.475 362.063C154.389 361.693 154.187 361.417 153.87 361.234C153.553 361.037 153.141 360.952 152.635 360.979C152.116 361.007 151.722 361.128 151.453 361.343C151.196 361.544 151.077 361.804 151.094 362.123C151.105 362.323 151.194 362.505 151.363 362.67C151.545 362.82 151.799 362.947 152.125 363.05C152.45 363.139 152.849 363.224 153.32 363.306C154.074 363.413 154.742 363.55 155.325 363.719C155.908 363.889 156.377 364.157 156.73 364.526C157.084 364.894 157.279 365.431 157.317 366.136C157.365 366.775 157.229 367.35 156.909 367.861C156.602 368.371 156.15 368.783 155.553 369.095C154.955 369.394 154.229 369.566 153.377 369.612ZM163.627 368.823C162.948 368.859 162.35 368.785 161.832 368.599C161.328 368.412 160.923 368.08 160.617 367.602C160.311 367.125 160.136 366.466 160.091 365.628L159.841 360.954L158.124 361.046L158.016 359.029L159.733 358.937L159.871 356.266L161.988 356.153L162.13 358.809L164.866 358.662L164.974 360.68L162.238 360.826L162.488 365.499C162.515 366.005 162.64 366.352 162.864 366.541C163.1 366.715 163.478 366.788 163.997 366.76L165.236 366.694L165.345 368.731L163.627 368.823ZM167.459 368.618L166.69 354.239L169.086 354.11L169.856 368.49L167.459 368.618ZM173.784 372.686L175.946 367.042L175.346 367.074L170.853 358.342L173.47 358.202L176.831 364.872L179.301 357.89L181.838 357.754L176.32 372.55L173.784 372.686ZM188.587 367.487L187.818 353.108L190.214 352.98L190.984 367.359L188.587 367.487ZM193.558 367.221L193.019 357.156L195.416 357.027L195.955 367.093L193.558 367.221ZM194.132 355.494C193.693 355.517 193.32 355.404 193.012 355.153C192.718 354.889 192.56 354.557 192.538 354.157C192.516 353.744 192.638 353.404 192.904 353.136C193.183 352.854 193.542 352.701 193.981 352.678C194.421 352.654 194.787 352.768 195.081 353.02C195.388 353.257 195.552 353.582 195.574 353.995C195.595 354.394 195.467 354.741 195.189 355.037C194.924 355.318 194.572 355.47 194.132 355.494ZM205.015 366.608L200.266 361.334L204.017 356.567L206.873 356.414L202.196 362.213L202.097 360.355L208.011 366.448L205.015 366.608ZM198.524 366.956L197.755 352.576L200.151 352.448L200.921 366.827L198.524 366.956ZM213.349 366.403C212.35 366.456 211.46 366.29 210.678 365.905C209.896 365.506 209.27 364.925 208.802 364.162C208.334 363.4 208.073 362.506 208.018 361.48C207.961 360.415 208.117 359.472 208.487 358.651C208.871 357.83 209.43 357.172 210.164 356.679C210.912 356.185 211.792 355.911 212.804 355.857C213.789 355.804 214.66 355.978 215.416 356.378C216.172 356.778 216.769 357.34 217.208 358.064C217.647 358.775 217.891 359.59 217.94 360.509C217.947 360.642 217.955 360.788 217.964 360.948C217.972 361.108 217.968 361.275 217.95 361.45L209.762 361.888L209.68 360.35L215.492 360.039C215.426 359.308 215.149 358.749 214.661 358.361C214.172 357.96 213.581 357.778 212.889 357.815C212.396 357.841 211.95 357.979 211.549 358.227C211.148 358.475 210.84 358.832 210.625 359.298C210.409 359.75 210.319 360.316 210.355 360.995L210.386 361.574C210.42 362.2 210.562 362.733 210.812 363.173C211.076 363.613 211.414 363.942 211.827 364.161C212.251 364.365 212.717 364.454 213.223 364.426C213.782 364.397 214.235 364.252 214.582 363.993C214.941 363.734 215.197 363.399 215.349 362.991L217.786 362.86C217.633 363.496 217.357 364.078 216.958 364.607C216.558 365.123 216.053 365.543 215.443 365.87C214.832 366.183 214.134 366.361 213.349 366.403ZM220.242 365.793L219.472 351.414L221.869 351.286L222.638 365.665L220.242 365.793ZM226.566 369.861L228.728 364.218L228.129 364.25L223.636 355.517L226.252 355.377L229.613 362.047L232.083 355.065L234.62 354.929L229.103 369.725L226.566 369.861ZM245.743 364.429C245.064 364.465 244.466 364.39 243.949 364.204C243.444 364.018 243.039 363.685 242.734 363.208C242.428 362.73 242.252 362.072 242.207 361.233L241.957 356.56L240.24 356.652L240.132 354.634L241.849 354.543L241.987 351.871L244.104 351.758L244.246 354.414L246.982 354.268L247.09 356.285L244.354 356.431L244.604 361.105C244.631 361.611 244.756 361.958 244.98 362.146C245.216 362.32 245.594 362.394 246.113 362.366L247.352 362.3L247.461 364.337L245.743 364.429ZM254.028 364.226C253.069 364.277 252.192 364.103 251.397 363.705C250.613 363.293 249.981 362.706 249.5 361.944C249.031 361.168 248.769 360.268 248.714 359.242C248.658 358.191 248.828 357.26 249.226 356.451C249.622 355.629 250.188 354.978 250.924 354.498C251.672 354.004 252.525 353.731 253.484 353.68C254.442 353.628 255.313 353.809 256.096 354.221C256.892 354.619 257.524 355.199 257.992 355.962C258.474 356.724 258.742 357.631 258.799 358.683C258.855 359.735 258.684 360.665 258.287 361.474C257.89 362.283 257.317 362.935 256.569 363.429C255.834 363.909 254.987 364.174 254.028 364.226ZM253.918 362.169C254.397 362.143 254.824 362 255.197 361.74C255.584 361.479 255.884 361.102 256.098 360.61C256.312 360.118 256.4 359.519 256.362 358.813C256.324 358.107 256.173 357.528 255.909 357.075C255.657 356.608 255.325 356.265 254.912 356.047C254.513 355.828 254.074 355.731 253.595 355.757C253.129 355.782 252.703 355.925 252.316 356.186C251.929 356.447 251.629 356.823 251.415 357.315C251.2 357.794 251.112 358.386 251.15 359.092C251.187 359.798 251.339 360.384 251.604 360.85C251.87 361.317 252.202 361.659 252.601 361.878C253.013 362.097 253.452 362.193 253.918 362.169ZM269.918 363.375C269.026 363.423 268.239 363.325 267.558 363.081C266.89 362.823 266.35 362.451 265.937 361.966C265.536 361.467 265.285 360.886 265.182 360.224L267.579 360.096C267.66 360.372 267.794 360.625 267.98 360.855C268.165 361.072 268.408 361.24 268.708 361.357C269.021 361.474 269.384 361.521 269.797 361.499C270.197 361.478 270.52 361.407 270.767 361.287C271.014 361.153 271.192 360.99 271.302 360.798C271.412 360.605 271.461 360.402 271.449 360.189C271.432 359.869 271.333 359.628 271.15 359.464C270.968 359.3 270.708 359.18 270.37 359.105C270.045 359.016 269.653 358.936 269.196 358.867C268.711 358.8 268.239 358.712 267.779 358.603C267.332 358.48 266.923 358.321 266.552 358.128C266.195 357.933 265.901 357.675 265.67 357.354C265.452 357.031 265.331 356.631 265.305 356.151C265.274 355.566 265.399 355.031 265.68 354.549C265.974 354.066 266.408 353.676 266.979 353.378C267.563 353.066 268.268 352.888 269.094 352.844C270.265 352.781 271.212 353.005 271.933 353.513C272.668 354.008 273.121 354.738 273.292 355.704L271.016 355.826C270.929 355.457 270.727 355.18 270.411 354.997C270.093 354.8 269.681 354.715 269.175 354.743C268.656 354.77 268.262 354.892 267.993 355.106C267.737 355.307 267.617 355.567 267.634 355.887C267.645 356.086 267.735 356.268 267.904 356.433C268.085 356.583 268.339 356.71 268.665 356.813C268.99 356.902 269.389 356.988 269.86 357.069C270.614 357.176 271.282 357.314 271.865 357.483C272.449 357.652 272.917 357.92 273.271 358.289C273.624 358.657 273.82 359.194 273.857 359.9C273.905 360.538 273.769 361.113 273.449 361.624C273.143 362.134 272.691 362.546 272.093 362.858C271.495 363.157 270.77 363.33 269.918 363.375ZM280.931 362.786C279.945 362.839 279.048 362.666 278.239 362.269C277.443 361.858 276.804 361.271 276.322 360.509C275.853 359.733 275.592 358.839 275.538 357.827C275.482 356.775 275.645 355.845 276.029 355.037C276.426 354.214 276.998 353.556 277.746 353.062C278.508 352.567 279.388 352.293 280.386 352.24C281.638 352.173 282.707 352.449 283.595 353.07C284.482 353.676 285.076 354.546 285.377 355.678L282.861 355.813C282.7 355.314 282.399 354.929 281.958 354.659C281.529 354.389 281.029 354.268 280.456 354.299C279.964 354.325 279.518 354.476 279.119 354.751C278.733 355.026 278.433 355.409 278.219 355.901C278.018 356.392 277.936 356.978 277.972 357.657C278 358.176 278.091 358.632 278.246 359.024C278.4 359.416 278.605 359.746 278.859 360.013C279.127 360.265 279.424 360.456 279.751 360.586C280.079 360.715 280.429 360.77 280.802 360.75C281.188 360.729 281.531 360.651 281.83 360.515C282.143 360.364 282.399 360.157 282.598 359.893C282.811 359.627 282.955 359.319 283.03 358.968L285.546 358.834C285.366 359.965 284.868 360.893 284.053 361.617C283.236 362.329 282.195 362.718 280.931 362.786ZM292.548 362.164C291.589 362.215 290.712 362.042 289.916 361.644C289.133 361.232 288.501 360.645 288.02 359.883C287.551 359.107 287.289 358.206 287.234 357.181C287.178 356.129 287.348 355.199 287.746 354.39C288.142 353.567 288.708 352.916 289.444 352.436C290.192 351.942 291.045 351.669 292.004 351.618C292.962 351.567 293.833 351.747 294.616 352.159C295.412 352.557 296.044 353.138 296.512 353.9C296.993 354.663 297.262 355.569 297.319 356.621C297.375 357.673 297.204 358.604 296.807 359.413C296.41 360.222 295.837 360.873 295.089 361.367C294.354 361.847 293.507 362.113 292.548 362.164ZM292.438 360.107C292.917 360.081 293.344 359.938 293.717 359.678C294.103 359.417 294.404 359.04 294.618 358.548C294.832 358.056 294.92 357.457 294.882 356.752C294.844 356.046 294.693 355.467 294.429 355.013C294.177 354.546 293.844 354.203 293.432 353.985C293.033 353.766 292.594 353.67 292.115 353.695C291.649 353.72 291.222 353.863 290.836 354.124C290.449 354.385 290.149 354.762 289.935 355.254C289.72 355.733 289.632 356.325 289.67 357.031C289.707 357.736 289.859 358.322 290.124 358.789C290.389 359.255 290.722 359.598 291.121 359.817C291.533 360.035 291.972 360.132 292.438 360.107ZM299.734 361.539L299.196 351.474L301.333 351.359L301.653 353.225C301.869 352.773 302.148 352.384 302.492 352.058C302.834 351.72 303.24 351.451 303.71 351.252C304.194 351.053 304.728 350.937 305.314 350.906L305.45 353.442L304.611 353.487C304.211 353.508 303.835 353.582 303.481 353.708C303.127 353.82 302.822 353.997 302.568 354.237C302.327 354.464 302.143 354.774 302.017 355.168C301.891 355.549 301.843 356.025 301.873 356.598L302.131 361.411L299.734 361.539ZM311.984 361.124C310.985 361.177 310.095 361.011 309.314 360.626C308.531 360.227 307.906 359.646 307.438 358.884C306.97 358.121 306.708 357.227 306.653 356.202C306.596 355.137 306.753 354.194 307.123 353.373C307.506 352.551 308.065 351.894 308.8 351.4C309.548 350.906 310.428 350.632 311.44 350.578C312.425 350.525 313.295 350.699 314.051 351.099C314.807 351.499 315.405 352.062 315.844 352.786C316.282 353.497 316.526 354.312 316.576 355.23C316.583 355.363 316.59 355.51 316.599 355.67C316.608 355.829 316.603 355.996 316.586 356.171L308.398 356.609L308.315 355.071L314.127 354.76C314.061 354.03 313.784 353.47 313.296 353.082C312.807 352.681 312.217 352.499 311.524 352.536C311.032 352.563 310.585 352.7 310.184 352.948C309.784 353.197 309.476 353.554 309.26 354.019C309.044 354.472 308.954 355.037 308.991 355.716L309.022 356.295C309.055 356.921 309.197 357.454 309.448 357.895C309.712 358.335 310.05 358.664 310.462 358.882C310.887 359.086 311.352 359.175 311.858 359.148C312.417 359.118 312.87 358.974 313.217 358.715C313.577 358.455 313.833 358.121 313.984 357.712L316.421 357.582C316.268 358.218 315.992 358.8 315.593 359.329C315.193 359.844 314.689 360.265 314.078 360.591C313.468 360.904 312.769 361.082 311.984 361.124ZM326.921 360.325C326.096 360.369 325.403 360.266 324.842 360.015C324.281 359.765 323.855 359.414 323.564 358.962C323.272 358.51 323.112 358.012 323.083 357.466C323.049 356.827 323.179 356.265 323.474 355.782C323.782 355.299 324.248 354.913 324.874 354.626C325.499 354.325 326.277 354.15 327.209 354.1L329.745 353.965C329.717 353.432 329.62 352.997 329.455 352.658C329.29 352.307 329.049 352.052 328.733 351.896C328.418 351.739 328.021 351.673 327.541 351.699C326.995 351.728 326.536 351.88 326.164 352.153C325.79 352.414 325.571 352.799 325.504 353.31L323.148 353.436C323.189 352.713 323.396 352.088 323.768 351.561C324.14 351.02 324.645 350.592 325.282 350.278C325.932 349.949 326.65 349.764 327.435 349.722C328.381 349.671 329.195 349.795 329.879 350.092C330.562 350.376 331.092 350.815 331.471 351.409C331.863 351.989 332.081 352.705 332.127 353.557L332.461 359.788L330.423 359.897L330.097 358.292C329.978 358.565 329.818 358.821 329.617 359.059C329.43 359.296 329.208 359.508 328.951 359.695C328.693 359.869 328.393 360.012 328.052 360.124C327.724 360.235 327.347 360.302 326.921 360.325ZM327.359 358.398C327.745 358.378 328.081 358.293 328.367 358.144C328.665 357.981 328.914 357.768 329.114 357.503C329.326 357.225 329.483 356.923 329.586 356.597C329.689 356.271 329.75 355.927 329.771 355.566L329.769 355.526L327.552 355.644C327.086 355.669 326.703 355.75 326.403 355.886C326.103 356.009 325.892 356.18 325.77 356.401C325.648 356.621 325.595 356.871 325.61 357.15C325.625 357.43 325.704 357.666 325.848 357.858C325.992 358.051 326.193 358.194 326.452 358.287C326.71 358.38 327.013 358.417 327.359 358.398ZM343.98 363.818C343.034 363.869 342.196 363.793 341.464 363.592C340.746 363.404 340.175 363.08 339.75 362.622C339.339 362.177 339.114 361.602 339.076 360.896C339.054 360.483 339.132 360.072 339.311 359.662C339.503 359.264 339.797 358.888 340.192 358.533C340.599 358.164 341.122 357.835 341.761 357.548L342.882 358.649C342.255 358.91 341.823 359.207 341.588 359.54C341.352 359.873 341.243 360.206 341.26 360.539C341.279 360.885 341.401 361.165 341.626 361.38C341.865 361.608 342.174 361.772 342.553 361.871C342.946 361.971 343.382 362.007 343.861 361.982C344.327 361.957 344.73 361.868 345.069 361.717C345.409 361.578 345.666 361.391 345.84 361.155C346.027 360.918 346.113 360.639 346.096 360.32C346.074 359.92 345.917 359.602 345.624 359.364C345.331 359.139 344.771 359.022 343.943 359.013C343.234 358.998 342.611 358.958 342.074 358.893C341.535 358.815 341.07 358.72 340.676 358.607C340.296 358.494 339.969 358.365 339.694 358.219C339.419 358.06 339.19 357.899 339.007 357.735L338.983 357.276L340.962 354.967L342.771 355.451L340.537 357.873L341.094 356.682C341.232 356.768 341.37 356.847 341.507 356.92C341.658 356.992 341.842 357.056 342.058 357.111C342.288 357.152 342.583 357.19 342.946 357.224C343.308 357.258 343.777 357.286 344.352 357.309C345.248 357.328 345.982 357.449 346.555 357.672C347.128 357.895 347.558 358.212 347.848 358.624C348.137 359.036 348.297 359.541 348.329 360.14C348.361 360.726 348.224 361.288 347.919 361.825C347.627 362.361 347.157 362.813 346.509 363.182C345.861 363.55 345.018 363.762 343.98 363.818ZM343.57 356.169C342.731 356.214 341.997 356.093 341.368 355.806C340.751 355.505 340.268 355.091 339.919 354.562C339.57 354.02 339.377 353.416 339.341 352.75C339.305 352.071 339.432 351.45 339.722 350.887C340.013 350.324 340.449 349.86 341.03 349.495C341.625 349.13 342.341 348.924 343.18 348.879C344.019 348.834 344.747 348.962 345.364 349.263C345.981 349.564 346.464 349.979 346.812 350.508C347.161 351.036 347.354 351.64 347.39 352.319C347.426 352.985 347.299 353.606 347.009 354.182C346.719 354.745 346.283 355.209 345.701 355.574C345.119 355.926 344.409 356.124 343.57 356.169ZM343.471 354.312C344.043 354.281 344.494 354.103 344.824 353.779C345.154 353.454 345.304 353.005 345.273 352.433C345.242 351.86 345.046 351.437 344.684 351.162C344.322 350.875 343.854 350.746 343.282 350.777C342.709 350.807 342.251 350.985 341.908 351.311C341.564 351.623 341.408 352.065 341.438 352.638C341.469 353.21 341.672 353.64 342.048 353.927C342.424 354.214 342.898 354.342 343.471 354.312ZM344.945 350.788L344.391 349.055L348.525 348.834L348.605 350.332L344.945 350.788ZM355.296 358.806C354.338 358.857 353.461 358.684 352.665 358.286C351.882 357.874 351.25 357.287 350.768 356.525C350.299 355.749 350.037 354.848 349.983 353.823C349.926 352.771 350.097 351.841 350.494 351.032C350.891 350.209 351.457 349.558 352.192 349.078C352.94 348.584 353.794 348.311 354.752 348.26C355.711 348.209 356.582 348.389 357.365 348.801C358.161 349.199 358.792 349.78 359.261 350.542C359.742 351.304 360.011 352.211 360.067 353.263C360.123 354.315 359.953 355.245 359.556 356.055C359.158 356.864 358.586 357.515 357.838 358.009C357.102 358.489 356.255 358.755 355.296 358.806ZM355.186 356.749C355.666 356.723 356.092 356.58 356.465 356.32C356.852 356.059 357.152 355.682 357.366 355.19C357.58 354.698 357.668 354.099 357.631 353.394C357.593 352.688 357.442 352.109 357.177 351.655C356.925 351.188 356.593 350.845 356.181 350.627C355.782 350.408 355.343 350.311 354.863 350.337C354.397 350.362 353.971 350.505 353.584 350.766C353.198 351.027 352.897 351.404 352.683 351.896C352.469 352.375 352.38 352.967 352.418 353.673C352.456 354.378 352.607 354.964 352.873 355.431C353.138 355.897 353.47 356.24 353.869 356.459C354.281 356.677 354.72 356.774 355.186 356.749ZM365.851 358.241C365.025 358.285 364.332 358.182 363.771 357.932C363.21 357.682 362.784 357.33 362.493 356.879C362.202 356.427 362.042 355.928 362.012 355.382C361.978 354.743 362.108 354.182 362.403 353.699C362.711 353.215 363.178 352.83 363.803 352.543C364.428 352.242 365.207 352.067 366.139 352.017L368.675 351.881C368.646 351.349 368.55 350.913 368.385 350.575C368.219 350.223 367.978 349.969 367.663 349.812C367.347 349.656 366.95 349.59 366.471 349.616C365.925 349.645 365.466 349.796 365.093 350.07C364.72 350.33 364.5 350.716 364.434 351.227L362.077 351.353C362.119 350.63 362.326 350.005 362.698 349.477C363.07 348.937 363.574 348.509 364.212 348.194C364.862 347.866 365.579 347.681 366.365 347.639C367.31 347.588 368.125 347.711 368.808 348.009C369.491 348.292 370.022 348.731 370.401 349.325C370.792 349.905 371.011 350.621 371.057 351.473L371.39 357.704L369.353 357.813L369.027 356.209C368.908 356.482 368.748 356.738 368.547 356.975C368.359 357.212 368.137 357.425 367.88 357.612C367.622 357.786 367.323 357.929 366.982 358.041C366.654 358.152 366.277 358.218 365.851 358.241ZM366.288 356.315C366.675 356.294 367.011 356.21 367.296 356.061C367.595 355.898 367.844 355.684 368.043 355.42C368.255 355.142 368.413 354.839 368.515 354.514C368.618 354.188 368.68 353.844 368.701 353.482L368.698 353.442L366.482 353.561C366.016 353.586 365.633 353.666 365.333 353.803C365.032 353.925 364.821 354.097 364.699 354.317C364.578 354.537 364.524 354.787 364.539 355.067C364.554 355.346 364.634 355.582 364.777 355.775C364.921 355.968 365.123 356.11 365.381 356.203C365.64 356.296 365.942 356.334 366.288 356.315ZM373.751 357.578L372.981 343.199L375.378 343.07L376.148 357.45L373.751 357.578Z" fill="#002638"/>
<path d="M438.518 257.277L146.731 246.126C130.451 245.504 116.749 258.198 116.126 274.478C115.504 290.759 128.198 304.461 144.478 305.083L436.265 316.234C452.546 316.856 466.248 304.162 466.87 287.882C467.493 271.601 454.799 257.899 438.518 257.277Z" fill="#FFB806"/>
<path d="M167.143 283.933L167.527 273.861L169.646 273.942L169.793 275.328C170.132 274.834 170.567 274.457 171.097 274.197C171.641 273.925 172.253 273.801 172.933 273.827C173.439 273.846 173.889 273.93 174.284 274.079C174.692 274.228 175.044 274.442 175.34 274.72C175.65 274.998 175.897 275.341 176.082 275.749C176.476 275.203 176.979 274.782 177.591 274.485C178.203 274.189 178.862 274.054 179.568 274.081C180.407 274.113 181.113 274.313 181.686 274.682C182.26 275.037 182.687 275.554 182.968 276.232C183.25 276.897 183.372 277.709 183.335 278.668L183.111 284.544L180.733 284.453L180.948 278.817C180.981 277.964 180.832 277.305 180.503 276.838C180.174 276.372 179.67 276.126 178.99 276.1C178.524 276.082 178.107 276.18 177.738 276.392C177.383 276.606 177.097 276.928 176.881 277.36C176.664 277.779 176.544 278.302 176.521 278.928L176.316 284.284L173.938 284.193L174.153 278.557C174.186 277.704 174.037 277.045 173.708 276.579C173.379 276.112 172.868 275.866 172.175 275.84C171.736 275.823 171.332 275.921 170.963 276.134C170.608 276.347 170.322 276.669 170.106 277.102C169.889 277.52 169.769 278.043 169.745 278.669L169.541 284.025L167.143 283.933ZM190.132 285.052C189.173 285.015 188.315 284.762 187.559 284.293C186.817 283.811 186.241 283.169 185.832 282.366C185.436 281.55 185.258 280.629 185.297 279.603C185.337 278.551 185.592 277.64 186.062 276.871C186.532 276.088 187.155 275.491 187.931 275.081C188.721 274.657 189.596 274.464 190.555 274.501C191.515 274.537 192.365 274.797 193.108 275.279C193.864 275.748 194.44 276.384 194.836 277.186C195.246 277.989 195.43 278.917 195.39 279.969C195.35 281.022 195.095 281.933 194.625 282.702C194.156 283.471 193.526 284.068 192.736 284.491C191.959 284.902 191.092 285.089 190.132 285.052ZM190.211 282.994C190.691 283.012 191.128 282.909 191.524 282.683C191.933 282.459 192.266 282.111 192.524 281.641C192.782 281.17 192.925 280.582 192.952 279.876C192.979 279.17 192.881 278.579 192.659 278.104C192.451 277.615 192.152 277.243 191.761 276.988C191.384 276.734 190.956 276.597 190.476 276.579C190.01 276.561 189.572 276.665 189.163 276.889C188.754 277.114 188.421 277.461 188.163 277.932C187.905 278.389 187.763 278.97 187.736 279.677C187.709 280.383 187.806 280.98 188.027 281.469C188.249 281.958 188.548 282.33 188.926 282.584C189.316 282.839 189.745 282.976 190.211 282.994ZM201.353 285.481C200.461 285.447 199.687 285.277 199.031 284.972C198.389 284.654 197.885 284.234 197.518 283.713C197.165 283.179 196.968 282.578 196.927 281.909L199.325 282.001C199.381 282.283 199.491 282.548 199.655 282.794C199.819 283.027 200.046 283.216 200.334 283.36C200.635 283.505 200.992 283.586 201.405 283.601C201.805 283.617 202.133 283.576 202.391 283.479C202.648 283.369 202.841 283.223 202.968 283.041C203.095 282.859 203.162 282.661 203.171 282.448C203.183 282.128 203.106 281.878 202.939 281.699C202.772 281.519 202.524 281.376 202.195 281.27C201.879 281.151 201.497 281.036 201.047 280.926C200.571 280.814 200.109 280.683 199.661 280.533C199.227 280.369 198.834 280.174 198.483 279.947C198.144 279.721 197.875 279.437 197.675 279.096C197.487 278.755 197.403 278.345 197.421 277.865C197.444 277.279 197.617 276.759 197.941 276.304C198.279 275.85 198.746 275.501 199.342 275.257C199.953 275 200.671 274.887 201.497 274.919C202.669 274.963 203.592 275.272 204.263 275.845C204.949 276.405 205.334 277.173 205.416 278.151L203.138 278.064C203.086 277.688 202.91 277.394 202.611 277.183C202.313 276.958 201.911 276.836 201.404 276.817C200.885 276.797 200.481 276.881 200.194 277.07C199.92 277.247 199.777 277.495 199.765 277.815C199.757 278.014 199.83 278.204 199.983 278.383C200.151 278.55 200.392 278.699 200.707 278.831C201.023 278.95 201.412 279.072 201.874 279.196C202.614 279.371 203.267 279.57 203.832 279.791C204.398 280.013 204.84 280.324 205.158 280.723C205.476 281.122 205.622 281.674 205.595 282.381C205.584 283.021 205.396 283.581 205.03 284.06C204.678 284.54 204.191 284.909 203.567 285.165C202.944 285.408 202.206 285.513 201.353 285.481ZM211.632 285.634C210.953 285.608 210.364 285.478 209.866 285.246C209.381 285.014 209.008 284.646 208.747 284.142C208.486 283.639 208.372 282.967 208.404 282.128L208.582 277.451L206.864 277.385L206.941 275.367L208.66 275.433L209.041 272.785L211.159 272.866L211.058 275.524L213.796 275.629L213.719 277.647L210.981 277.543L210.802 282.219C210.783 282.726 210.876 283.083 211.081 283.291C211.301 283.486 211.67 283.593 212.19 283.613L213.429 283.661L213.351 285.699L211.632 285.634ZM215.467 285.78L216.017 271.391L218.416 271.482L217.866 285.872L215.467 285.78ZM221.393 290.41L224.062 284.988L223.463 284.965L219.788 275.858L222.406 275.958L225.142 282.907L228.241 276.181L230.78 276.278L223.931 290.507L221.393 290.41ZM236.61 286.588L237.16 272.199L239.558 272.29L239.008 286.68L236.61 286.588ZM241.584 286.778L241.969 276.705L244.367 276.797L243.983 286.87L241.584 286.778ZM243.229 275.152C242.79 275.136 242.428 274.988 242.146 274.711C241.876 274.42 241.749 274.075 241.765 273.675C241.781 273.262 241.933 272.935 242.223 272.692C242.526 272.437 242.897 272.318 243.337 272.334C243.777 272.351 244.131 272.498 244.401 272.775C244.685 273.04 244.818 273.378 244.803 273.792C244.787 274.191 244.628 274.525 244.324 274.794C244.034 275.05 243.669 275.169 243.229 275.152ZM253.049 287.216L248.803 281.53L252.975 277.126L255.833 277.235L250.645 282.581L250.716 280.722L256.047 287.331L253.049 287.216ZM246.554 286.968L247.104 272.579L249.502 272.67L248.952 287.06L246.554 286.968ZM261.367 287.774C260.367 287.736 259.496 287.489 258.753 287.034C258.01 286.565 257.441 285.93 257.045 285.127C256.648 284.325 256.47 283.411 256.509 282.385C256.55 281.319 256.792 280.394 257.235 279.611C257.692 278.827 258.309 278.224 259.086 277.8C259.876 277.376 260.777 277.184 261.79 277.223C262.776 277.26 263.627 277.513 264.343 277.981C265.059 278.448 265.602 279.063 265.974 279.824C266.345 280.572 266.514 281.406 266.478 282.325C266.473 282.459 266.468 282.605 266.462 282.765C266.456 282.925 266.436 283.091 266.403 283.263L258.209 282.95L258.267 281.411L264.083 281.633C264.084 280.9 263.86 280.317 263.409 279.886C262.959 279.442 262.388 279.207 261.695 279.181C261.202 279.162 260.745 279.258 260.323 279.468C259.901 279.679 259.562 280.006 259.305 280.45C259.048 280.881 258.907 281.436 258.881 282.115L258.859 282.695C258.835 283.321 258.927 283.865 259.137 284.327C259.359 284.789 259.666 285.147 260.056 285.402C260.461 285.645 260.916 285.776 261.422 285.795C261.982 285.816 262.446 285.714 262.815 285.488C263.197 285.262 263.483 284.953 263.671 284.56L266.109 284.653C265.899 285.272 265.571 285.827 265.125 286.317C264.68 286.793 264.139 287.166 263.501 287.436C262.864 287.691 262.153 287.804 261.367 287.774ZM268.287 287.799L268.837 273.409L271.235 273.501L270.685 287.89L268.287 287.799ZM274.212 292.428L276.881 287.006L276.282 286.983L272.607 277.876L275.225 277.976L277.962 284.926L281.061 278.199L283.599 278.296L276.75 292.525L274.212 292.428ZM293.806 288.774C293.126 288.748 292.538 288.618 292.039 288.386C291.555 288.154 291.182 287.786 290.921 287.282C290.66 286.779 290.545 286.107 290.577 285.268L290.756 280.591L289.037 280.526L289.114 278.507L290.833 278.573L291.215 275.925L293.333 276.006L293.231 278.664L295.969 278.769L295.892 280.788L293.154 280.683L292.976 285.36C292.956 285.866 293.049 286.223 293.255 286.431C293.474 286.626 293.844 286.734 294.363 286.754L295.603 286.801L295.525 288.839L293.806 288.774ZM302.075 289.33C301.115 289.293 300.258 289.04 299.502 288.571C298.76 288.089 298.184 287.447 297.774 286.644C297.378 285.828 297.2 284.907 297.239 283.881C297.279 282.829 297.534 281.918 298.004 281.148C298.474 280.366 299.098 279.769 299.874 279.359C300.664 278.935 301.539 278.742 302.498 278.778C303.457 278.815 304.308 279.074 305.05 279.556C305.806 280.026 306.382 280.661 306.779 281.464C307.188 282.267 307.373 283.194 307.333 284.247C307.292 285.3 307.037 286.21 306.568 286.98C306.098 287.749 305.468 288.345 304.678 288.769C303.902 289.18 303.034 289.367 302.075 289.33ZM302.153 287.271C302.633 287.29 303.071 287.186 303.466 286.961C303.875 286.737 304.209 286.389 304.467 285.919C304.725 285.448 304.867 284.86 304.894 284.154C304.921 283.448 304.824 282.857 304.602 282.381C304.394 281.893 304.094 281.521 303.704 281.266C303.327 281.012 302.898 280.875 302.419 280.857C301.952 280.839 301.515 280.942 301.106 281.167C300.697 281.391 300.363 281.739 300.105 282.209C299.848 282.667 299.705 283.248 299.678 283.954C299.651 284.661 299.749 285.258 299.97 285.747C300.192 286.236 300.491 286.607 300.868 286.862C301.259 287.117 301.687 287.254 302.153 287.271ZM318.027 294.343C317.081 294.307 316.253 294.155 315.543 293.887C314.845 293.634 314.306 293.26 313.924 292.765C313.556 292.284 313.385 291.69 313.412 290.984C313.428 290.571 313.543 290.168 313.758 289.776C313.986 289.398 314.313 289.05 314.739 288.733C315.179 288.403 315.73 288.124 316.392 287.896L317.407 289.095C316.759 289.297 316.302 289.553 316.037 289.863C315.771 290.174 315.632 290.495 315.62 290.828C315.606 291.175 315.702 291.465 315.907 291.7C316.124 291.948 316.417 292.14 316.785 292.274C317.167 292.408 317.598 292.485 318.077 292.503C318.544 292.521 318.953 292.47 319.304 292.35C319.655 292.243 319.928 292.08 320.123 291.861C320.332 291.642 320.442 291.373 320.455 291.053C320.47 290.653 320.342 290.322 320.072 290.058C319.802 289.807 319.254 289.639 318.43 289.555C317.726 289.474 317.109 289.377 316.58 289.264C316.051 289.137 315.596 288.999 315.215 288.851C314.847 288.704 314.533 288.545 314.272 288.375C314.012 288.192 313.799 288.01 313.633 287.83L313.65 287.37L315.833 285.252L317.589 285.9L315.143 288.108L315.807 286.973C315.937 287.071 316.067 287.163 316.197 287.248C316.34 287.333 316.517 287.413 316.728 287.488C316.952 287.55 317.243 287.615 317.601 287.682C317.959 287.749 318.423 287.82 318.994 287.895C319.884 287.996 320.604 288.183 321.154 288.458C321.704 288.732 322.104 289.088 322.354 289.524C322.604 289.961 322.718 290.479 322.695 291.079C322.673 291.665 322.485 292.211 322.132 292.718C321.793 293.226 321.283 293.633 320.604 293.941C319.925 294.248 319.066 294.382 318.027 294.343ZM318.32 286.688C317.48 286.656 316.76 286.469 316.16 286.125C315.573 285.769 315.13 285.312 314.831 284.754C314.533 284.182 314.396 283.563 314.422 282.897C314.448 282.217 314.631 281.61 314.971 281.076C315.312 280.542 315.789 280.12 316.401 279.81C317.027 279.5 317.759 279.362 318.598 279.394C319.438 279.426 320.151 279.62 320.738 279.976C321.325 280.332 321.767 280.789 322.066 281.347C322.365 281.906 322.502 282.525 322.476 283.204C322.45 283.871 322.267 284.477 321.926 285.025C321.585 285.559 321.109 285.981 320.496 286.291C319.885 286.588 319.159 286.72 318.32 286.688ZM318.391 284.83C318.964 284.852 319.429 284.716 319.787 284.423C320.145 284.129 320.335 283.696 320.357 283.123C320.379 282.551 320.222 282.111 319.887 281.805C319.553 281.485 319.099 281.314 318.526 281.292C317.953 281.27 317.481 281.406 317.109 281.698C316.738 281.978 316.542 282.404 316.52 282.977C316.498 283.55 316.661 283.996 317.009 284.317C317.357 284.637 317.818 284.808 318.391 284.83ZM320.181 281.456L319.788 279.679L323.925 279.837L323.868 281.336L320.181 281.456ZM329.755 290.388C328.796 290.351 327.938 290.098 327.182 289.629C326.44 289.147 325.864 288.504 325.455 287.701C325.059 286.886 324.881 285.965 324.92 284.939C324.96 283.886 325.215 282.976 325.685 282.206C326.155 281.424 326.778 280.827 327.554 280.416C328.345 279.993 329.219 279.799 330.179 279.836C331.138 279.873 331.989 280.132 332.731 280.614C333.487 281.083 334.063 281.719 334.459 282.522C334.869 283.324 335.053 284.252 335.013 285.305C334.973 286.357 334.718 287.268 334.248 288.038C333.779 288.807 333.149 289.403 332.359 289.827C331.582 290.237 330.715 290.424 329.755 290.388ZM329.834 288.329C330.314 288.347 330.751 288.244 331.147 288.019C331.556 287.795 331.889 287.447 332.147 286.977C332.405 286.506 332.548 285.918 332.575 285.212C332.602 284.505 332.504 283.915 332.282 283.439C332.074 282.951 331.775 282.579 331.384 282.324C331.007 282.069 330.579 281.933 330.099 281.915C329.633 281.897 329.195 282 328.786 282.225C328.377 282.449 328.044 282.797 327.786 283.267C327.528 283.724 327.386 284.306 327.359 285.012C327.332 285.718 327.429 286.316 327.651 286.805C327.872 287.293 328.171 287.665 328.549 287.92C328.939 288.175 329.368 288.311 329.834 288.329ZM341.648 290.602L342.198 276.212L344.596 276.304L344.372 282.18C344.726 281.646 345.195 281.231 345.78 280.933C346.366 280.622 347.018 280.48 347.738 280.507C348.564 280.539 349.257 280.739 349.817 281.107C350.377 281.462 350.791 281.978 351.058 282.656C351.34 283.32 351.462 284.145 351.424 285.131L351.201 290.967L348.823 290.876L349.037 285.26C349.07 284.394 348.909 283.728 348.553 283.26C348.211 282.794 347.667 282.546 346.921 282.517C346.441 282.499 346.003 282.602 345.608 282.827C345.213 283.039 344.894 283.361 344.65 283.792C344.407 284.209 344.274 284.731 344.25 285.358L344.046 290.694L341.648 290.602ZM358.236 291.476C357.277 291.439 356.419 291.186 355.663 290.717C354.921 290.235 354.345 289.593 353.936 288.79C353.54 287.974 353.361 287.053 353.401 286.027C353.441 284.975 353.696 284.064 354.166 283.295C354.636 282.512 355.259 281.915 356.035 281.505C356.825 281.081 357.7 280.888 358.659 280.925C359.619 280.961 360.469 281.221 361.211 281.703C361.967 282.172 362.544 282.808 362.94 283.61C363.35 284.413 363.534 285.341 363.494 286.393C363.454 287.446 363.199 288.357 362.729 289.126C362.259 289.895 361.629 290.492 360.839 290.915C360.063 291.326 359.195 291.513 358.236 291.476ZM358.315 289.418C358.794 289.436 359.232 289.333 359.628 289.107C360.036 288.883 360.37 288.535 360.628 288.065C360.886 287.594 361.029 287.006 361.056 286.3C361.083 285.594 360.985 285.003 360.763 284.527C360.555 284.039 360.256 283.667 359.865 283.412C359.488 283.158 359.06 283.021 358.58 283.003C358.114 282.985 357.676 283.089 357.267 283.313C356.858 283.538 356.525 283.885 356.267 284.356C356.009 284.813 355.867 285.394 355.84 286.101C355.813 286.807 355.91 287.404 356.131 287.893C356.353 288.382 356.652 288.754 357.029 289.008C357.42 289.263 357.848 289.4 358.315 289.418ZM365.449 291.512L365.834 281.439L367.953 281.52L368.1 282.906C368.439 282.412 368.874 282.035 369.404 281.775C369.948 281.503 370.56 281.379 371.24 281.405C371.746 281.425 372.196 281.509 372.591 281.657C372.999 281.806 373.351 282.02 373.647 282.298C373.957 282.577 374.204 282.92 374.388 283.327C374.783 282.782 375.286 282.36 375.898 282.064C376.51 281.767 377.169 281.632 377.875 281.659C378.714 281.691 379.42 281.891 379.993 282.26C380.567 282.616 380.994 283.132 381.275 283.81C381.556 284.475 381.679 285.287 381.642 286.246L381.418 292.122L379.039 292.031L379.255 286.395C379.287 285.542 379.139 284.883 378.81 284.417C378.481 283.95 377.977 283.704 377.297 283.678C376.831 283.66 376.413 283.758 376.045 283.971C375.69 284.184 375.404 284.507 375.187 284.939C374.971 285.357 374.851 285.88 374.827 286.506L374.623 291.862L372.244 291.771L372.46 286.135C372.492 285.283 372.344 284.623 372.015 284.157C371.686 283.691 371.175 283.444 370.482 283.418C370.042 283.401 369.638 283.499 369.27 283.712C368.915 283.925 368.629 284.248 368.412 284.68C368.196 285.098 368.076 285.621 368.052 286.247L367.848 291.603L365.449 291.512ZM388.459 292.631C387.46 292.593 386.589 292.346 385.845 291.891C385.103 291.422 384.533 290.786 384.137 289.984C383.741 289.182 383.562 288.267 383.601 287.242C383.642 286.176 383.884 285.251 384.328 284.467C384.785 283.684 385.401 283.081 386.178 282.657C386.968 282.233 387.87 282.041 388.882 282.079C389.868 282.117 390.719 282.37 391.435 282.837C392.151 283.305 392.695 283.92 393.066 284.681C393.438 285.429 393.606 286.263 393.571 287.182C393.566 287.315 393.56 287.462 393.554 287.622C393.548 287.782 393.528 287.948 393.495 288.12L385.301 287.807L385.36 286.268L391.175 286.49C391.177 285.756 390.952 285.174 390.502 284.743C390.052 284.299 389.48 284.064 388.787 284.037C388.294 284.018 387.837 284.114 387.415 284.325C386.994 284.536 386.654 284.863 386.397 285.307C386.141 285.737 385.999 286.292 385.973 286.972L385.951 287.552C385.927 288.178 386.02 288.722 386.229 289.183C386.452 289.645 386.758 290.004 387.149 290.259C387.553 290.501 388.008 290.632 388.515 290.652C389.074 290.673 389.538 290.571 389.907 290.345C390.29 290.119 390.575 289.81 390.763 289.417L393.202 289.51C392.991 290.129 392.663 290.683 392.217 291.173C391.772 291.65 391.231 292.023 390.593 292.292C389.957 292.548 389.245 292.661 388.459 292.631Z" fill="#60480B"/>
</g>
<defs>
<clipPath id="clip0_1228_38">
<rect width="503" height="396" fill="white"/>
</clipPath>
</defs>
</svg>
