<svg width="159" height="58" viewBox="0 0 159 58" fill="none" xmlns="http://www.w3.org/2000/svg">
<path d="M139 9H20C8.9543 9 0 17.9543 0 29C0 40.0457 8.9543 49 20 49H139C150.046 49 159 40.0457 159 29C159 17.9543 150.046 9 139 9Z" fill="#252525"/>
<path d="M13.6101 36.9999V24.7179H16.2781L16.3701 27.7309L16.0941 27.5929C16.2321 26.9336 16.4698 26.3739 16.8071 25.9139C17.1598 25.4386 17.5814 25.0782 18.0721 24.8329C18.5781 24.5722 19.1301 24.4419 19.7281 24.4419C20.7708 24.4419 21.6141 24.7409 22.2581 25.3389C22.9021 25.9216 23.3084 26.7266 23.4771 27.7539H23.0861C23.2241 27.0332 23.4618 26.4352 23.7991 25.9599C24.1364 25.4692 24.5581 25.0936 25.0641 24.8329C25.5854 24.5722 26.1681 24.4419 26.8121 24.4419C27.6554 24.4419 28.3838 24.6259 28.9971 24.9939C29.6104 25.3466 30.0781 25.8679 30.4001 26.5579C30.7374 27.2479 30.9061 28.0989 30.9061 29.1109V36.9999H27.9621V29.8699C27.9621 28.8579 27.7858 28.0989 27.4331 27.5929C27.0958 27.0869 26.5744 26.8339 25.8691 26.8339C25.3938 26.8339 24.9874 26.9566 24.6501 27.2019C24.3128 27.4472 24.0521 27.8076 23.8681 28.2829C23.6994 28.7429 23.6151 29.3026 23.6151 29.9619V36.9999H20.8781V29.9619C20.8781 28.9499 20.7248 28.1756 20.4181 27.6389C20.1114 27.1022 19.5824 26.8339 18.8311 26.8339C18.3558 26.8339 17.9494 26.9566 17.6121 27.2019C17.2901 27.4472 17.0294 27.8076 16.8301 28.2829C16.6461 28.7429 16.5541 29.3026 16.5541 29.9619V36.9999H13.6101ZM38.9309 37.2759C37.7196 37.2759 36.6539 37.0152 35.7339 36.4939C34.8293 35.9572 34.1239 35.2059 33.6179 34.2399C33.1273 33.2739 32.8819 32.1469 32.8819 30.8589C32.8819 29.5556 33.1273 28.4286 33.6179 27.4779C34.1239 26.5119 34.8293 25.7682 35.7339 25.2469C36.6539 24.7102 37.7196 24.4419 38.9309 24.4419C40.1423 24.4419 41.2003 24.7102 42.1049 25.2469C43.0096 25.7682 43.7073 26.5119 44.1979 27.4779C44.7039 28.4286 44.9569 29.5556 44.9569 30.8589C44.9569 32.1469 44.7039 33.2739 44.1979 34.2399C43.7073 35.2059 43.0096 35.9572 42.1049 36.4939C41.2003 37.0152 40.1423 37.2759 38.9309 37.2759ZM38.9309 34.8839C39.8816 34.8839 40.6099 34.5312 41.1159 33.8259C41.6373 33.1206 41.8979 32.1316 41.8979 30.8589C41.8979 29.6016 41.6373 28.6202 41.1159 27.9149C40.6099 27.1942 39.8816 26.8339 38.9309 26.8339C37.9803 26.8339 37.2443 27.1942 36.7229 27.9149C36.2016 28.6202 35.9409 29.6016 35.9409 30.8589C35.9409 32.1316 36.2016 33.1206 36.7229 33.8259C37.2443 34.5312 37.9803 34.8839 38.9309 34.8839ZM51.9897 37.2759C50.7784 37.2759 49.7587 37.0996 48.9307 36.7469C48.1181 36.3942 47.4894 35.9036 47.0447 35.2749C46.6001 34.6462 46.3471 33.9332 46.2857 33.1359L49.2987 32.9979C49.4061 33.6419 49.6744 34.1402 50.1037 34.4929C50.5331 34.8456 51.1694 35.0219 52.0127 35.0219C52.7027 35.0219 53.2394 34.9146 53.6227 34.6999C54.0214 34.4699 54.2207 34.1172 54.2207 33.6419C54.2207 33.3659 54.1517 33.1359 54.0137 32.9519C53.8757 32.7679 53.6151 32.6069 53.2317 32.4689C52.8484 32.3309 52.2811 32.1929 51.5297 32.0549C50.2724 31.8402 49.2834 31.5796 48.5627 31.2729C47.8421 30.9509 47.3284 30.5522 47.0217 30.0769C46.7304 29.6016 46.5847 29.0112 46.5847 28.3059C46.5847 27.1559 47.0217 26.2282 47.8957 25.5229C48.7851 24.8022 50.0807 24.4419 51.7827 24.4419C52.8867 24.4419 53.8144 24.6259 54.5657 24.9939C55.3171 25.3466 55.8997 25.8372 56.3137 26.4659C56.7431 27.0792 57.0114 27.7846 57.1187 28.5819L54.1517 28.7199C54.0751 28.3059 53.9371 27.9456 53.7377 27.6389C53.5384 27.3322 53.2701 27.1022 52.9327 26.9489C52.5954 26.7802 52.1967 26.6959 51.7367 26.6959C51.0467 26.6959 50.5254 26.8339 50.1727 27.1099C49.8201 27.3859 49.6437 27.7539 49.6437 28.2139C49.6437 28.5359 49.7204 28.8042 49.8737 29.0189C50.0424 29.2336 50.3107 29.4099 50.6787 29.5479C51.0467 29.6706 51.5374 29.7856 52.1507 29.8929C53.4387 30.0922 54.4507 30.3529 55.1867 30.6749C55.9381 30.9816 56.4671 31.3802 56.7737 31.8709C57.0957 32.3462 57.2567 32.9212 57.2567 33.5959C57.2567 34.3779 57.0344 35.0449 56.5897 35.5969C56.1604 36.1489 55.5471 36.5706 54.7497 36.8619C53.9677 37.1379 53.0477 37.2759 51.9897 37.2759ZM63.8196 36.9999C62.593 36.9999 61.6883 36.7162 61.1056 36.1489C60.5383 35.5816 60.2546 34.6922 60.2546 33.4809V21.8429H63.1986V33.2049C63.1986 33.7722 63.3213 34.1709 63.5666 34.4009C63.812 34.6156 64.1953 34.7229 64.7166 34.7229H66.4416V36.9999H63.8196ZM58.3226 26.9949V24.7179H66.4416V26.9949H58.3226ZM71.4271 36.9999C70.5377 36.9999 69.8247 36.7699 69.2881 36.3099C68.7514 35.8499 68.4831 35.1139 68.4831 34.1019V20.6699H71.4271V33.8029C71.4271 34.1096 71.5037 34.3396 71.6571 34.4929C71.8257 34.6462 72.0557 34.7229 72.3471 34.7229H73.2441V36.9999H71.4271ZM74.9015 36.9999V24.7179H77.8455V36.9999H74.9015ZM74.8555 23.0849V20.4629H77.9145V23.0849H74.8555ZM80.4889 36.9999V20.6699H83.4329V30.2609L88.4699 24.7179H92.1039L87.2969 29.8239L92.2649 36.9999H88.9529L85.3649 31.5719L83.4329 33.6189V36.9999H80.4889ZM98.5319 37.2759C97.3052 37.2759 96.2395 37.0152 95.3348 36.4939C94.4302 35.9572 93.7325 35.2059 93.2418 34.2399C92.7512 33.2739 92.5058 32.1469 92.5058 30.8589C92.5058 29.5709 92.7512 28.4516 93.2418 27.5009C93.7325 26.5349 94.4225 25.7836 95.3118 25.2469C96.2165 24.7102 97.2668 24.4419 98.4628 24.4419C99.6282 24.4419 100.648 24.7026 101.522 25.2239C102.411 25.7452 103.093 26.4966 103.569 27.4779C104.044 28.4592 104.282 29.6399 104.282 31.0199V31.6869H95.5648C95.6262 32.7602 95.9175 33.5729 96.4388 34.1249C96.9755 34.6616 97.6808 34.9299 98.5548 34.9299C99.2142 34.9299 99.7585 34.7842 100.188 34.4929C100.632 34.1862 100.939 33.7646 101.108 33.2279L104.121 33.4119C103.783 34.6079 103.116 35.5509 102.12 36.2409C101.138 36.9309 99.9425 37.2759 98.5319 37.2759ZM95.5648 29.7089H101.246C101.184 28.7122 100.901 27.9762 100.395 27.5009C99.8888 27.0102 99.2448 26.7649 98.4628 26.7649C97.6808 26.7649 97.0292 27.0179 96.5078 27.5239C96.0018 28.0299 95.6875 28.7582 95.5648 29.7089ZM109.409 36.9999C108.52 36.9999 107.807 36.7699 107.27 36.3099C106.734 35.8499 106.465 35.1139 106.465 34.1019V20.6699H109.409V33.8029C109.409 34.1096 109.486 34.3396 109.639 34.4929C109.808 34.6462 110.038 34.7229 110.329 34.7229H111.226V36.9999H109.409ZM113.219 40.4499V38.1729H114.783C115.181 38.1729 115.473 38.1116 115.657 37.9889C115.856 37.8662 116.009 37.6592 116.117 37.3679L116.462 36.5169H115.611L111.218 24.7179H114.277L117.359 33.7569L120.303 24.7179H123.362L118.555 38.2879C118.279 39.0546 117.888 39.6066 117.382 39.9439C116.891 40.2812 116.201 40.4499 115.312 40.4499H113.219ZM129.637 36.9999C128.411 36.9999 127.506 36.7162 126.923 36.1489C126.356 35.5816 126.072 34.6922 126.072 33.4809V21.8429H129.016V33.2049C129.016 33.7722 129.139 34.1709 129.384 34.4009C129.63 34.6156 130.013 34.7229 130.534 34.7229H132.259V36.9999H129.637ZM124.14 26.9949V24.7179H132.259V26.9949H124.14ZM139.322 37.2759C138.111 37.2759 137.045 37.0152 136.125 36.4939C135.221 35.9572 134.515 35.2059 134.009 34.2399C133.519 33.2739 133.273 32.1469 133.273 30.8589C133.273 29.5556 133.519 28.4286 134.009 27.4779C134.515 26.5119 135.221 25.7682 136.125 25.2469C137.045 24.7102 138.111 24.4419 139.322 24.4419C140.534 24.4419 141.592 24.7102 142.496 25.2469C143.401 25.7682 144.099 26.5119 144.589 27.4779C145.095 28.4286 145.348 29.5556 145.348 30.8589C145.348 32.1469 145.095 33.2739 144.589 34.2399C144.099 35.2059 143.401 35.9572 142.496 36.4939C141.592 37.0152 140.534 37.2759 139.322 37.2759ZM139.322 34.8839C140.273 34.8839 141.001 34.5312 141.507 33.8259C142.029 33.1206 142.289 32.1316 142.289 30.8589C142.289 29.6016 142.029 28.6202 141.507 27.9149C141.001 27.1942 140.273 26.8339 139.322 26.8339C138.372 26.8339 137.636 27.1942 137.114 27.9149C136.593 28.6202 136.332 29.6016 136.332 30.8589C136.332 32.1316 136.593 33.1206 137.114 33.8259C137.636 34.5312 138.372 34.8839 139.322 34.8839Z" fill="white"/>
</svg>
